G04 #@! TF.GenerationSoftware,KiCad,Pcbnew,5.1.4*
G04 #@! TF.CreationDate,2019-10-24T11:37:56-03:00*
G04 #@! TF.ProjectId,mows,6d6f7773-2e6b-4696-9361-645f70636258,rev?*
G04 #@! TF.SameCoordinates,Original*
G04 #@! TF.FileFunction,Copper,L1,Top*
G04 #@! TF.FilePolarity,Positive*
%FSLAX46Y46*%
G04 Gerber Fmt 4.6, Leading zero omitted, Abs format (unit mm)*
G04 Created by KiCad (PCBNEW 5.1.4) date 2019-10-24 11:37:56*
%MOMM*%
%LPD*%
G04 APERTURE LIST*
%ADD10C,0.150000*%
%ADD11O,1.700000X1.700000*%
%ADD12R,1.700000X1.700000*%
%ADD13R,1.500000X0.900000*%
%ADD14O,1.500000X0.900000*%
%ADD15O,2.200000X2.200000*%
%ADD16R,2.200000X2.200000*%
%ADD17O,1.600000X1.600000*%
%ADD18C,1.600000*%
%ADD19R,1.600000X1.600000*%
%ADD20C,0.500000*%
%ADD21C,0.254000*%
G04 APERTURE END LIST*
D10*
X171000000Y-86000000D02*
X171000000Y-125000000D01*
X171000000Y-73000000D02*
X171000000Y-78000000D01*
X171000000Y-86000000D02*
G75*
G02X171000000Y-78000000I0J4000000D01*
G01*
X148000000Y-129000000D02*
G75*
G02X160000000Y-129000000I6000000J0D01*
G01*
X167000000Y-129000000D02*
X160000000Y-129000000D01*
X147000000Y-129000000D02*
X148000000Y-129000000D01*
X127000000Y-129000000D02*
X147000000Y-129000000D01*
X127000000Y-69000000D02*
X167000000Y-69000000D01*
X123000000Y-125000000D02*
X123000000Y-73000000D01*
X123000000Y-125000000D02*
G75*
G02X127000000Y-129000000I0J-4000000D01*
G01*
X127000000Y-69000000D02*
G75*
G02X123000000Y-73000000I-4000000J0D01*
G01*
X171000000Y-73000000D02*
G75*
G02X167000000Y-69000000I0J4000000D01*
G01*
X167000000Y-129000000D02*
G75*
G02X171000000Y-125000000I4000000J0D01*
G01*
D11*
X142170000Y-109000000D03*
X144710000Y-109000000D03*
D12*
X147250000Y-109000000D03*
D13*
X145454500Y-80736500D03*
D14*
X145454500Y-83276500D03*
X145454500Y-82006500D03*
D15*
X146661000Y-75212000D03*
D16*
X133961000Y-75212000D03*
D17*
X129262000Y-84250000D03*
D18*
X136882000Y-84250000D03*
D17*
X129294000Y-88404000D03*
D18*
X136914000Y-88404000D03*
D11*
X150801200Y-77721520D03*
D12*
X150801200Y-75181520D03*
X150872320Y-81948080D03*
D11*
X150872320Y-84488080D03*
X153900000Y-99850000D03*
X153900000Y-97310000D03*
X153900000Y-94770000D03*
X153900000Y-92230000D03*
D12*
X153900000Y-89690000D03*
D17*
X159520000Y-102120000D03*
D18*
X167140000Y-102120000D03*
D11*
X150960000Y-109000000D03*
D12*
X153500000Y-109000000D03*
D17*
X145804000Y-92214000D03*
X138184000Y-99834000D03*
X145804000Y-94754000D03*
X138184000Y-97294000D03*
X145804000Y-97294000D03*
X138184000Y-94754000D03*
X145804000Y-99834000D03*
D19*
X138184000Y-92214000D03*
D17*
X159520000Y-97802000D03*
D18*
X167140000Y-97802000D03*
D17*
X159520000Y-93738000D03*
D18*
X167140000Y-93738000D03*
D17*
X159520000Y-89928000D03*
D18*
X167140000Y-89928000D03*
D17*
X129294000Y-104914000D03*
D18*
X136914000Y-104914000D03*
D11*
X130564000Y-108724000D03*
X133104000Y-108724000D03*
D12*
X135644000Y-108724000D03*
X159750000Y-109000000D03*
D11*
X157210000Y-109000000D03*
X163460000Y-109000000D03*
D12*
X166000000Y-109000000D03*
D20*
X133104000Y-86896630D02*
X133104000Y-107521919D01*
X133104000Y-107521919D02*
X133104000Y-108724000D01*
X135750630Y-84250000D02*
X133104000Y-86896630D01*
X136882000Y-84250000D02*
X135750630Y-84250000D01*
X165461870Y-87118500D02*
X145804000Y-87118500D01*
X167140000Y-89928000D02*
X167140000Y-88796630D01*
X167140000Y-88796630D02*
X165461870Y-87118500D01*
X145804000Y-92214000D02*
X145804000Y-87118500D01*
X167140000Y-89928000D02*
X167140000Y-93738000D01*
X167140000Y-93738000D02*
X167140000Y-98739000D01*
X167140000Y-97802000D02*
X167140000Y-98739000D01*
X167140000Y-98739000D02*
X167140000Y-102120000D01*
X145804000Y-87118500D02*
X145804000Y-83626000D01*
X145804000Y-83626000D02*
X145454500Y-83276500D01*
X147250000Y-107650000D02*
X147250000Y-109000000D01*
X142250000Y-95768000D02*
X142250000Y-102650000D01*
X142250000Y-102650000D02*
X147250000Y-107650000D01*
X145804000Y-92214000D02*
X142250000Y-95768000D01*
X150813900Y-82006500D02*
X150872320Y-81948080D01*
X145454500Y-82006500D02*
X150813900Y-82006500D01*
X139155500Y-82006500D02*
X133961000Y-76812000D01*
X145454500Y-82006500D02*
X139155500Y-82006500D01*
X133961000Y-76812000D02*
X133961000Y-75212000D01*
X150770720Y-75212000D02*
X150801200Y-75181520D01*
X146661000Y-75212000D02*
X150770720Y-75212000D01*
D21*
G36*
X166375589Y-69878528D02*
G01*
X166388521Y-69941529D01*
X166400586Y-70004774D01*
X166403451Y-70014265D01*
X166634299Y-70760014D01*
X166659223Y-70819305D01*
X166683342Y-70879003D01*
X166687997Y-70887755D01*
X167059300Y-71574465D01*
X167095257Y-71627774D01*
X167130520Y-71681661D01*
X167136786Y-71689343D01*
X167634399Y-72290854D01*
X167680035Y-72336173D01*
X167725084Y-72382175D01*
X167732722Y-72388494D01*
X168337693Y-72881895D01*
X168391253Y-72917480D01*
X168444389Y-72953863D01*
X168453109Y-72958578D01*
X169142393Y-73325077D01*
X169201875Y-73349594D01*
X169261035Y-73374950D01*
X169270505Y-73377881D01*
X170017850Y-73603518D01*
X170080969Y-73616016D01*
X170143920Y-73629396D01*
X170153777Y-73630432D01*
X170153779Y-73630432D01*
X170290000Y-73643789D01*
X170290001Y-77359313D01*
X170089210Y-77381835D01*
X170026285Y-77395210D01*
X169963140Y-77407713D01*
X169953670Y-77410645D01*
X169209549Y-77646694D01*
X169150422Y-77672036D01*
X169090907Y-77696566D01*
X169082187Y-77701281D01*
X168398087Y-78077368D01*
X168345000Y-78113717D01*
X168291391Y-78149335D01*
X168283753Y-78155654D01*
X167685730Y-78657455D01*
X167640716Y-78703421D01*
X167595044Y-78748776D01*
X167588784Y-78756453D01*
X167588779Y-78756458D01*
X167588775Y-78756463D01*
X167099613Y-79364858D01*
X167064398Y-79418672D01*
X167028392Y-79472054D01*
X167023739Y-79480807D01*
X166662060Y-80172634D01*
X166637962Y-80232280D01*
X166613017Y-80291621D01*
X166610152Y-80301111D01*
X166389738Y-81050012D01*
X166377684Y-81113202D01*
X166364740Y-81176259D01*
X166363773Y-81186125D01*
X166293019Y-81963575D01*
X166293468Y-82027892D01*
X166293019Y-82092275D01*
X166293986Y-82102141D01*
X166375589Y-82878528D01*
X166388521Y-82941529D01*
X166400586Y-83004774D01*
X166403451Y-83014265D01*
X166634299Y-83760014D01*
X166659223Y-83819305D01*
X166683342Y-83879003D01*
X166687997Y-83887755D01*
X167059300Y-84574465D01*
X167095257Y-84627774D01*
X167130520Y-84681661D01*
X167136786Y-84689343D01*
X167634399Y-85290854D01*
X167680035Y-85336173D01*
X167725084Y-85382175D01*
X167732722Y-85388494D01*
X168337693Y-85881895D01*
X168391253Y-85917480D01*
X168444389Y-85953863D01*
X168453109Y-85958578D01*
X169142393Y-86325077D01*
X169201875Y-86349594D01*
X169261035Y-86374950D01*
X169270505Y-86377881D01*
X170017850Y-86603518D01*
X170080969Y-86616016D01*
X170143920Y-86629396D01*
X170153777Y-86630432D01*
X170153779Y-86630432D01*
X170290000Y-86643789D01*
X170290001Y-124357875D01*
X170121472Y-124375588D01*
X170058447Y-124388526D01*
X169995225Y-124400586D01*
X169985735Y-124403451D01*
X169239985Y-124634299D01*
X169180636Y-124659247D01*
X169120997Y-124683343D01*
X169112249Y-124687994D01*
X169112245Y-124687996D01*
X169112244Y-124687997D01*
X168425535Y-125059300D01*
X168372226Y-125095257D01*
X168318339Y-125130520D01*
X168310657Y-125136785D01*
X167709146Y-125634399D01*
X167663827Y-125680035D01*
X167617825Y-125725084D01*
X167611506Y-125732723D01*
X167118104Y-126337693D01*
X167082508Y-126391269D01*
X167046137Y-126444388D01*
X167041427Y-126453101D01*
X167041422Y-126453109D01*
X167041419Y-126453117D01*
X166674923Y-127142393D01*
X166650418Y-127201847D01*
X166625050Y-127261035D01*
X166622119Y-127270505D01*
X166396482Y-128017850D01*
X166383986Y-128080963D01*
X166370604Y-128143920D01*
X166369568Y-128153779D01*
X166356211Y-128290000D01*
X160652041Y-128290000D01*
X160599704Y-127800265D01*
X160590424Y-127751617D01*
X160582333Y-127702745D01*
X160577901Y-127685972D01*
X160315135Y-126738471D01*
X160298036Y-126691997D01*
X160282071Y-126645100D01*
X160274959Y-126629276D01*
X159860971Y-125737414D01*
X159836514Y-125694362D01*
X159813100Y-125650695D01*
X159803500Y-125636245D01*
X159249406Y-124823974D01*
X159218229Y-124785474D01*
X159188014Y-124746239D01*
X159176183Y-124733552D01*
X158496864Y-124022685D01*
X158459819Y-123989795D01*
X158423600Y-123956020D01*
X158409863Y-123945441D01*
X158409856Y-123945435D01*
X158409850Y-123945431D01*
X157623556Y-123355065D01*
X157581659Y-123328681D01*
X157540389Y-123301261D01*
X157525100Y-123293063D01*
X156652936Y-122839043D01*
X156607261Y-122819843D01*
X156562097Y-122799546D01*
X156545679Y-122793957D01*
X156545675Y-122793955D01*
X156545671Y-122793954D01*
X155611067Y-122488479D01*
X155562897Y-122477003D01*
X155514998Y-122464348D01*
X155497883Y-122461514D01*
X154525934Y-122312785D01*
X154476513Y-122309329D01*
X154427213Y-122304669D01*
X154409865Y-122304669D01*
X153426676Y-122316681D01*
X153377378Y-122321341D01*
X153327955Y-122324797D01*
X153310840Y-122327631D01*
X152342814Y-122500063D01*
X152294936Y-122512713D01*
X152246745Y-122524194D01*
X152230322Y-122529785D01*
X151303459Y-122858003D01*
X151258262Y-122878316D01*
X151212620Y-122897502D01*
X151197337Y-122905697D01*
X151197332Y-122905699D01*
X151197328Y-122905702D01*
X150336520Y-123380893D01*
X150295255Y-123408310D01*
X150253353Y-123434697D01*
X150239608Y-123445282D01*
X149467967Y-124054687D01*
X149431750Y-124088461D01*
X149394704Y-124121351D01*
X149382872Y-124134039D01*
X148721124Y-124861290D01*
X148690905Y-124900531D01*
X148659733Y-124939025D01*
X148650132Y-124953475D01*
X148116049Y-125779041D01*
X148092652Y-125822677D01*
X148068178Y-125865759D01*
X148061066Y-125881583D01*
X147668991Y-126783294D01*
X147653024Y-126830198D01*
X147635927Y-126876666D01*
X147631495Y-126893439D01*
X147391958Y-127847078D01*
X147383872Y-127895923D01*
X147374587Y-127944597D01*
X147372954Y-127961868D01*
X147345977Y-128290000D01*
X127642125Y-128290000D01*
X127624412Y-128121472D01*
X127611474Y-128058447D01*
X127599414Y-127995225D01*
X127596549Y-127985735D01*
X127365701Y-127239985D01*
X127340753Y-127180636D01*
X127316657Y-127120997D01*
X127312003Y-127112244D01*
X126940700Y-126425535D01*
X126904743Y-126372226D01*
X126869480Y-126318339D01*
X126863215Y-126310657D01*
X126365601Y-125709146D01*
X126319965Y-125663827D01*
X126274916Y-125617825D01*
X126267277Y-125611506D01*
X125662307Y-125118104D01*
X125608731Y-125082508D01*
X125555612Y-125046137D01*
X125546899Y-125041427D01*
X125546891Y-125041422D01*
X125546883Y-125041419D01*
X124857607Y-124674923D01*
X124798153Y-124650418D01*
X124738965Y-124625050D01*
X124729495Y-124622119D01*
X123982150Y-124396482D01*
X123919037Y-124383986D01*
X123856080Y-124370604D01*
X123846221Y-124369568D01*
X123710000Y-124356211D01*
X123710000Y-109080891D01*
X129122519Y-109080891D01*
X129219843Y-109355252D01*
X129368822Y-109605355D01*
X129563731Y-109821588D01*
X129797080Y-109995641D01*
X130059901Y-110120825D01*
X130207110Y-110165476D01*
X130437000Y-110044155D01*
X130437000Y-108851000D01*
X129243186Y-108851000D01*
X129122519Y-109080891D01*
X123710000Y-109080891D01*
X123710000Y-108367109D01*
X129122519Y-108367109D01*
X129243186Y-108597000D01*
X130437000Y-108597000D01*
X130437000Y-107403845D01*
X130691000Y-107403845D01*
X130691000Y-108597000D01*
X130711000Y-108597000D01*
X130711000Y-108851000D01*
X130691000Y-108851000D01*
X130691000Y-110044155D01*
X130920890Y-110165476D01*
X131068099Y-110120825D01*
X131330920Y-109995641D01*
X131564269Y-109821588D01*
X131759178Y-109605355D01*
X131828799Y-109488477D01*
X131863294Y-109553014D01*
X132048866Y-109779134D01*
X132274986Y-109964706D01*
X132532966Y-110102599D01*
X132812889Y-110187513D01*
X133031050Y-110209000D01*
X133176950Y-110209000D01*
X133395111Y-110187513D01*
X133675034Y-110102599D01*
X133933014Y-109964706D01*
X134159134Y-109779134D01*
X134183607Y-109749313D01*
X134204498Y-109818180D01*
X134263463Y-109928494D01*
X134342815Y-110025185D01*
X134439506Y-110104537D01*
X134549820Y-110163502D01*
X134669518Y-110199812D01*
X134794000Y-110212072D01*
X136494000Y-110212072D01*
X136618482Y-110199812D01*
X136738180Y-110163502D01*
X136848494Y-110104537D01*
X136945185Y-110025185D01*
X137024537Y-109928494D01*
X137083502Y-109818180D01*
X137119812Y-109698482D01*
X137132072Y-109574000D01*
X137132072Y-109356891D01*
X140728519Y-109356891D01*
X140825843Y-109631252D01*
X140974822Y-109881355D01*
X141169731Y-110097588D01*
X141403080Y-110271641D01*
X141665901Y-110396825D01*
X141813110Y-110441476D01*
X142043000Y-110320155D01*
X142043000Y-109127000D01*
X140849186Y-109127000D01*
X140728519Y-109356891D01*
X137132072Y-109356891D01*
X137132072Y-108643109D01*
X140728519Y-108643109D01*
X140849186Y-108873000D01*
X142043000Y-108873000D01*
X142043000Y-107679845D01*
X141813110Y-107558524D01*
X141665901Y-107603175D01*
X141403080Y-107728359D01*
X141169731Y-107902412D01*
X140974822Y-108118645D01*
X140825843Y-108368748D01*
X140728519Y-108643109D01*
X137132072Y-108643109D01*
X137132072Y-107874000D01*
X137119812Y-107749518D01*
X137083502Y-107629820D01*
X137024537Y-107519506D01*
X136945185Y-107422815D01*
X136848494Y-107343463D01*
X136738180Y-107284498D01*
X136618482Y-107248188D01*
X136494000Y-107235928D01*
X134794000Y-107235928D01*
X134669518Y-107248188D01*
X134549820Y-107284498D01*
X134439506Y-107343463D01*
X134342815Y-107422815D01*
X134263463Y-107519506D01*
X134204498Y-107629820D01*
X134183607Y-107698687D01*
X134159134Y-107668866D01*
X133989000Y-107529241D01*
X133989000Y-104772665D01*
X135479000Y-104772665D01*
X135479000Y-105055335D01*
X135534147Y-105332574D01*
X135642320Y-105593727D01*
X135799363Y-105828759D01*
X135999241Y-106028637D01*
X136234273Y-106185680D01*
X136495426Y-106293853D01*
X136772665Y-106349000D01*
X137055335Y-106349000D01*
X137332574Y-106293853D01*
X137593727Y-106185680D01*
X137828759Y-106028637D01*
X138028637Y-105828759D01*
X138185680Y-105593727D01*
X138293853Y-105332574D01*
X138349000Y-105055335D01*
X138349000Y-104772665D01*
X138293853Y-104495426D01*
X138185680Y-104234273D01*
X138028637Y-103999241D01*
X137828759Y-103799363D01*
X137593727Y-103642320D01*
X137332574Y-103534147D01*
X137055335Y-103479000D01*
X136772665Y-103479000D01*
X136495426Y-103534147D01*
X136234273Y-103642320D01*
X135999241Y-103799363D01*
X135799363Y-103999241D01*
X135642320Y-104234273D01*
X135534147Y-104495426D01*
X135479000Y-104772665D01*
X133989000Y-104772665D01*
X133989000Y-100183039D01*
X136792096Y-100183039D01*
X136832754Y-100317087D01*
X136952963Y-100571420D01*
X137120481Y-100797414D01*
X137328869Y-100986385D01*
X137570119Y-101131070D01*
X137834960Y-101225909D01*
X138057000Y-101104624D01*
X138057000Y-99961000D01*
X138311000Y-99961000D01*
X138311000Y-101104624D01*
X138533040Y-101225909D01*
X138797881Y-101131070D01*
X139039131Y-100986385D01*
X139247519Y-100797414D01*
X139415037Y-100571420D01*
X139535246Y-100317087D01*
X139575904Y-100183039D01*
X139453915Y-99961000D01*
X138311000Y-99961000D01*
X138057000Y-99961000D01*
X136914085Y-99961000D01*
X136792096Y-100183039D01*
X133989000Y-100183039D01*
X133989000Y-94754000D01*
X136742057Y-94754000D01*
X136769764Y-95035309D01*
X136851818Y-95305808D01*
X136985068Y-95555101D01*
X137164392Y-95773608D01*
X137382899Y-95952932D01*
X137515858Y-96024000D01*
X137382899Y-96095068D01*
X137164392Y-96274392D01*
X136985068Y-96492899D01*
X136851818Y-96742192D01*
X136769764Y-97012691D01*
X136742057Y-97294000D01*
X136769764Y-97575309D01*
X136851818Y-97845808D01*
X136985068Y-98095101D01*
X137164392Y-98313608D01*
X137382899Y-98492932D01*
X137520682Y-98566579D01*
X137328869Y-98681615D01*
X137120481Y-98870586D01*
X136952963Y-99096580D01*
X136832754Y-99350913D01*
X136792096Y-99484961D01*
X136914085Y-99707000D01*
X138057000Y-99707000D01*
X138057000Y-99687000D01*
X138311000Y-99687000D01*
X138311000Y-99707000D01*
X139453915Y-99707000D01*
X139575904Y-99484961D01*
X139535246Y-99350913D01*
X139415037Y-99096580D01*
X139247519Y-98870586D01*
X139039131Y-98681615D01*
X138847318Y-98566579D01*
X138985101Y-98492932D01*
X139203608Y-98313608D01*
X139382932Y-98095101D01*
X139516182Y-97845808D01*
X139598236Y-97575309D01*
X139625943Y-97294000D01*
X139598236Y-97012691D01*
X139516182Y-96742192D01*
X139382932Y-96492899D01*
X139203608Y-96274392D01*
X138985101Y-96095068D01*
X138852142Y-96024000D01*
X138985101Y-95952932D01*
X139203608Y-95773608D01*
X139382932Y-95555101D01*
X139516182Y-95305808D01*
X139598236Y-95035309D01*
X139625943Y-94754000D01*
X139598236Y-94472691D01*
X139516182Y-94202192D01*
X139382932Y-93952899D01*
X139203608Y-93734392D01*
X139090518Y-93641581D01*
X139108482Y-93639812D01*
X139228180Y-93603502D01*
X139338494Y-93544537D01*
X139435185Y-93465185D01*
X139514537Y-93368494D01*
X139573502Y-93258180D01*
X139609812Y-93138482D01*
X139622072Y-93014000D01*
X139622072Y-91414000D01*
X139609812Y-91289518D01*
X139573502Y-91169820D01*
X139514537Y-91059506D01*
X139435185Y-90962815D01*
X139338494Y-90883463D01*
X139228180Y-90824498D01*
X139108482Y-90788188D01*
X138984000Y-90775928D01*
X137384000Y-90775928D01*
X137259518Y-90788188D01*
X137139820Y-90824498D01*
X137029506Y-90883463D01*
X136932815Y-90962815D01*
X136853463Y-91059506D01*
X136794498Y-91169820D01*
X136758188Y-91289518D01*
X136745928Y-91414000D01*
X136745928Y-93014000D01*
X136758188Y-93138482D01*
X136794498Y-93258180D01*
X136853463Y-93368494D01*
X136932815Y-93465185D01*
X137029506Y-93544537D01*
X137139820Y-93603502D01*
X137259518Y-93639812D01*
X137277482Y-93641581D01*
X137164392Y-93734392D01*
X136985068Y-93952899D01*
X136851818Y-94202192D01*
X136769764Y-94472691D01*
X136742057Y-94754000D01*
X133989000Y-94754000D01*
X133989000Y-88262665D01*
X135479000Y-88262665D01*
X135479000Y-88545335D01*
X135534147Y-88822574D01*
X135642320Y-89083727D01*
X135799363Y-89318759D01*
X135999241Y-89518637D01*
X136234273Y-89675680D01*
X136495426Y-89783853D01*
X136772665Y-89839000D01*
X137055335Y-89839000D01*
X137332574Y-89783853D01*
X137593727Y-89675680D01*
X137828759Y-89518637D01*
X138028637Y-89318759D01*
X138185680Y-89083727D01*
X138293853Y-88822574D01*
X138349000Y-88545335D01*
X138349000Y-88262665D01*
X138293853Y-87985426D01*
X138185680Y-87724273D01*
X138028637Y-87489241D01*
X137828759Y-87289363D01*
X137593727Y-87132320D01*
X137332574Y-87024147D01*
X137055335Y-86969000D01*
X136772665Y-86969000D01*
X136495426Y-87024147D01*
X136234273Y-87132320D01*
X135999241Y-87289363D01*
X135799363Y-87489241D01*
X135642320Y-87724273D01*
X135534147Y-87985426D01*
X135479000Y-88262665D01*
X133989000Y-88262665D01*
X133989000Y-87263208D01*
X135927406Y-85324802D01*
X135967241Y-85364637D01*
X136202273Y-85521680D01*
X136463426Y-85629853D01*
X136740665Y-85685000D01*
X137023335Y-85685000D01*
X137300574Y-85629853D01*
X137561727Y-85521680D01*
X137796759Y-85364637D01*
X137996637Y-85164759D01*
X138153680Y-84929727D01*
X138261853Y-84668574D01*
X138317000Y-84391335D01*
X138317000Y-84108665D01*
X138261853Y-83831426D01*
X138153680Y-83570273D01*
X137996637Y-83335241D01*
X137796759Y-83135363D01*
X137561727Y-82978320D01*
X137300574Y-82870147D01*
X137023335Y-82815000D01*
X136740665Y-82815000D01*
X136463426Y-82870147D01*
X136202273Y-82978320D01*
X135967241Y-83135363D01*
X135767363Y-83335241D01*
X135750319Y-83360750D01*
X135707163Y-83365000D01*
X135707153Y-83365000D01*
X135577140Y-83377805D01*
X135410317Y-83428411D01*
X135256571Y-83510589D01*
X135256569Y-83510590D01*
X135256570Y-83510590D01*
X135155583Y-83593468D01*
X135155581Y-83593470D01*
X135121813Y-83621183D01*
X135094100Y-83654951D01*
X132508956Y-86240096D01*
X132475183Y-86267813D01*
X132364589Y-86402572D01*
X132282411Y-86556318D01*
X132231805Y-86723141D01*
X132219000Y-86853154D01*
X132219000Y-86853161D01*
X132214719Y-86896630D01*
X132219000Y-86940099D01*
X132219001Y-107478433D01*
X132219000Y-107478443D01*
X132219000Y-107529241D01*
X132048866Y-107668866D01*
X131863294Y-107894986D01*
X131828799Y-107959523D01*
X131759178Y-107842645D01*
X131564269Y-107626412D01*
X131330920Y-107452359D01*
X131068099Y-107327175D01*
X130920890Y-107282524D01*
X130691000Y-107403845D01*
X130437000Y-107403845D01*
X130207110Y-107282524D01*
X130059901Y-107327175D01*
X129797080Y-107452359D01*
X129563731Y-107626412D01*
X129368822Y-107842645D01*
X129219843Y-108092748D01*
X129122519Y-108367109D01*
X123710000Y-108367109D01*
X123710000Y-105263039D01*
X127902096Y-105263039D01*
X127942754Y-105397087D01*
X128062963Y-105651420D01*
X128230481Y-105877414D01*
X128438869Y-106066385D01*
X128680119Y-106211070D01*
X128944960Y-106305909D01*
X129167000Y-106184624D01*
X129167000Y-105041000D01*
X129421000Y-105041000D01*
X129421000Y-106184624D01*
X129643040Y-106305909D01*
X129907881Y-106211070D01*
X130149131Y-106066385D01*
X130357519Y-105877414D01*
X130525037Y-105651420D01*
X130645246Y-105397087D01*
X130685904Y-105263039D01*
X130563915Y-105041000D01*
X129421000Y-105041000D01*
X129167000Y-105041000D01*
X128024085Y-105041000D01*
X127902096Y-105263039D01*
X123710000Y-105263039D01*
X123710000Y-104564961D01*
X127902096Y-104564961D01*
X128024085Y-104787000D01*
X129167000Y-104787000D01*
X129167000Y-103643376D01*
X129421000Y-103643376D01*
X129421000Y-104787000D01*
X130563915Y-104787000D01*
X130685904Y-104564961D01*
X130645246Y-104430913D01*
X130525037Y-104176580D01*
X130357519Y-103950586D01*
X130149131Y-103761615D01*
X129907881Y-103616930D01*
X129643040Y-103522091D01*
X129421000Y-103643376D01*
X129167000Y-103643376D01*
X128944960Y-103522091D01*
X128680119Y-103616930D01*
X128438869Y-103761615D01*
X128230481Y-103950586D01*
X128062963Y-104176580D01*
X127942754Y-104430913D01*
X127902096Y-104564961D01*
X123710000Y-104564961D01*
X123710000Y-88753039D01*
X127902096Y-88753039D01*
X127942754Y-88887087D01*
X128062963Y-89141420D01*
X128230481Y-89367414D01*
X128438869Y-89556385D01*
X128680119Y-89701070D01*
X128944960Y-89795909D01*
X129167000Y-89674624D01*
X129167000Y-88531000D01*
X129421000Y-88531000D01*
X129421000Y-89674624D01*
X129643040Y-89795909D01*
X129907881Y-89701070D01*
X130149131Y-89556385D01*
X130357519Y-89367414D01*
X130525037Y-89141420D01*
X130645246Y-88887087D01*
X130685904Y-88753039D01*
X130563915Y-88531000D01*
X129421000Y-88531000D01*
X129167000Y-88531000D01*
X128024085Y-88531000D01*
X127902096Y-88753039D01*
X123710000Y-88753039D01*
X123710000Y-88054961D01*
X127902096Y-88054961D01*
X128024085Y-88277000D01*
X129167000Y-88277000D01*
X129167000Y-87133376D01*
X129421000Y-87133376D01*
X129421000Y-88277000D01*
X130563915Y-88277000D01*
X130685904Y-88054961D01*
X130645246Y-87920913D01*
X130525037Y-87666580D01*
X130357519Y-87440586D01*
X130149131Y-87251615D01*
X129907881Y-87106930D01*
X129643040Y-87012091D01*
X129421000Y-87133376D01*
X129167000Y-87133376D01*
X128944960Y-87012091D01*
X128680119Y-87106930D01*
X128438869Y-87251615D01*
X128230481Y-87440586D01*
X128062963Y-87666580D01*
X127942754Y-87920913D01*
X127902096Y-88054961D01*
X123710000Y-88054961D01*
X123710000Y-84250000D01*
X127820057Y-84250000D01*
X127847764Y-84531309D01*
X127929818Y-84801808D01*
X128063068Y-85051101D01*
X128242392Y-85269608D01*
X128460899Y-85448932D01*
X128710192Y-85582182D01*
X128980691Y-85664236D01*
X129191508Y-85685000D01*
X129332492Y-85685000D01*
X129543309Y-85664236D01*
X129813808Y-85582182D01*
X130063101Y-85448932D01*
X130281608Y-85269608D01*
X130460932Y-85051101D01*
X130594182Y-84801808D01*
X130676236Y-84531309D01*
X130703943Y-84250000D01*
X130676236Y-83968691D01*
X130594182Y-83698192D01*
X130460932Y-83448899D01*
X130281608Y-83230392D01*
X130063101Y-83051068D01*
X129813808Y-82917818D01*
X129543309Y-82835764D01*
X129332492Y-82815000D01*
X129191508Y-82815000D01*
X128980691Y-82835764D01*
X128710192Y-82917818D01*
X128460899Y-83051068D01*
X128242392Y-83230392D01*
X128063068Y-83448899D01*
X127929818Y-83698192D01*
X127847764Y-83968691D01*
X127820057Y-84250000D01*
X123710000Y-84250000D01*
X123710000Y-74112000D01*
X132222928Y-74112000D01*
X132222928Y-76312000D01*
X132235188Y-76436482D01*
X132271498Y-76556180D01*
X132330463Y-76666494D01*
X132409815Y-76763185D01*
X132506506Y-76842537D01*
X132616820Y-76901502D01*
X132736518Y-76937812D01*
X132861000Y-76950072D01*
X133085317Y-76950072D01*
X133088805Y-76985489D01*
X133139411Y-77152312D01*
X133221589Y-77306058D01*
X133332183Y-77440817D01*
X133365956Y-77468534D01*
X138498970Y-82601549D01*
X138526683Y-82635317D01*
X138560451Y-82663030D01*
X138560453Y-82663032D01*
X138614785Y-82707621D01*
X138661441Y-82745911D01*
X138815187Y-82828089D01*
X138982010Y-82878695D01*
X139112023Y-82891500D01*
X139112033Y-82891500D01*
X139155499Y-82895781D01*
X139198965Y-82891500D01*
X144137467Y-82891500D01*
X144085200Y-83063803D01*
X144064251Y-83276500D01*
X144085200Y-83489197D01*
X144147241Y-83693720D01*
X144247991Y-83882210D01*
X144383578Y-84047422D01*
X144548790Y-84183009D01*
X144737280Y-84283759D01*
X144919001Y-84338883D01*
X144919000Y-87075023D01*
X144914718Y-87118500D01*
X144919001Y-87161987D01*
X144919000Y-91083922D01*
X144784392Y-91194392D01*
X144605068Y-91412899D01*
X144471818Y-91662192D01*
X144389764Y-91932691D01*
X144362057Y-92214000D01*
X144379125Y-92387296D01*
X141654956Y-95111466D01*
X141621183Y-95139183D01*
X141510589Y-95273942D01*
X141428411Y-95427688D01*
X141377805Y-95594511D01*
X141365000Y-95724524D01*
X141365000Y-95724531D01*
X141360719Y-95768000D01*
X141365000Y-95811469D01*
X141365001Y-102606521D01*
X141360719Y-102650000D01*
X141377805Y-102823490D01*
X141428412Y-102990313D01*
X141510590Y-103144059D01*
X141593468Y-103245046D01*
X141593471Y-103245049D01*
X141621184Y-103278817D01*
X141654952Y-103306530D01*
X146002872Y-107654451D01*
X145948815Y-107698815D01*
X145869463Y-107795506D01*
X145810498Y-107905820D01*
X145789607Y-107974687D01*
X145765134Y-107944866D01*
X145539014Y-107759294D01*
X145281034Y-107621401D01*
X145001111Y-107536487D01*
X144782950Y-107515000D01*
X144637050Y-107515000D01*
X144418889Y-107536487D01*
X144138966Y-107621401D01*
X143880986Y-107759294D01*
X143654866Y-107944866D01*
X143469294Y-108170986D01*
X143434799Y-108235523D01*
X143365178Y-108118645D01*
X143170269Y-107902412D01*
X142936920Y-107728359D01*
X142674099Y-107603175D01*
X142526890Y-107558524D01*
X142297000Y-107679845D01*
X142297000Y-108873000D01*
X142317000Y-108873000D01*
X142317000Y-109127000D01*
X142297000Y-109127000D01*
X142297000Y-110320155D01*
X142526890Y-110441476D01*
X142674099Y-110396825D01*
X142936920Y-110271641D01*
X143170269Y-110097588D01*
X143365178Y-109881355D01*
X143434799Y-109764477D01*
X143469294Y-109829014D01*
X143654866Y-110055134D01*
X143880986Y-110240706D01*
X144138966Y-110378599D01*
X144418889Y-110463513D01*
X144637050Y-110485000D01*
X144782950Y-110485000D01*
X145001111Y-110463513D01*
X145281034Y-110378599D01*
X145539014Y-110240706D01*
X145765134Y-110055134D01*
X145789607Y-110025313D01*
X145810498Y-110094180D01*
X145869463Y-110204494D01*
X145948815Y-110301185D01*
X146045506Y-110380537D01*
X146155820Y-110439502D01*
X146275518Y-110475812D01*
X146400000Y-110488072D01*
X148100000Y-110488072D01*
X148224482Y-110475812D01*
X148344180Y-110439502D01*
X148454494Y-110380537D01*
X148551185Y-110301185D01*
X148630537Y-110204494D01*
X148689502Y-110094180D01*
X148725812Y-109974482D01*
X148738072Y-109850000D01*
X148738072Y-109356891D01*
X149518519Y-109356891D01*
X149615843Y-109631252D01*
X149764822Y-109881355D01*
X149959731Y-110097588D01*
X150193080Y-110271641D01*
X150455901Y-110396825D01*
X150603110Y-110441476D01*
X150833000Y-110320155D01*
X150833000Y-109127000D01*
X149639186Y-109127000D01*
X149518519Y-109356891D01*
X148738072Y-109356891D01*
X148738072Y-108643109D01*
X149518519Y-108643109D01*
X149639186Y-108873000D01*
X150833000Y-108873000D01*
X150833000Y-107679845D01*
X151087000Y-107679845D01*
X151087000Y-108873000D01*
X151107000Y-108873000D01*
X151107000Y-109127000D01*
X151087000Y-109127000D01*
X151087000Y-110320155D01*
X151316890Y-110441476D01*
X151464099Y-110396825D01*
X151726920Y-110271641D01*
X151960269Y-110097588D01*
X152036034Y-110013534D01*
X152060498Y-110094180D01*
X152119463Y-110204494D01*
X152198815Y-110301185D01*
X152295506Y-110380537D01*
X152405820Y-110439502D01*
X152525518Y-110475812D01*
X152650000Y-110488072D01*
X154350000Y-110488072D01*
X154474482Y-110475812D01*
X154594180Y-110439502D01*
X154704494Y-110380537D01*
X154801185Y-110301185D01*
X154880537Y-110204494D01*
X154939502Y-110094180D01*
X154975812Y-109974482D01*
X154988072Y-109850000D01*
X154988072Y-109356891D01*
X155768519Y-109356891D01*
X155865843Y-109631252D01*
X156014822Y-109881355D01*
X156209731Y-110097588D01*
X156443080Y-110271641D01*
X156705901Y-110396825D01*
X156853110Y-110441476D01*
X157083000Y-110320155D01*
X157083000Y-109127000D01*
X155889186Y-109127000D01*
X155768519Y-109356891D01*
X154988072Y-109356891D01*
X154988072Y-108643109D01*
X155768519Y-108643109D01*
X155889186Y-108873000D01*
X157083000Y-108873000D01*
X157083000Y-107679845D01*
X157337000Y-107679845D01*
X157337000Y-108873000D01*
X157357000Y-108873000D01*
X157357000Y-109127000D01*
X157337000Y-109127000D01*
X157337000Y-110320155D01*
X157566890Y-110441476D01*
X157714099Y-110396825D01*
X157976920Y-110271641D01*
X158210269Y-110097588D01*
X158286034Y-110013534D01*
X158310498Y-110094180D01*
X158369463Y-110204494D01*
X158448815Y-110301185D01*
X158545506Y-110380537D01*
X158655820Y-110439502D01*
X158775518Y-110475812D01*
X158900000Y-110488072D01*
X160600000Y-110488072D01*
X160724482Y-110475812D01*
X160844180Y-110439502D01*
X160954494Y-110380537D01*
X161051185Y-110301185D01*
X161130537Y-110204494D01*
X161189502Y-110094180D01*
X161225812Y-109974482D01*
X161238072Y-109850000D01*
X161238072Y-109356891D01*
X162018519Y-109356891D01*
X162115843Y-109631252D01*
X162264822Y-109881355D01*
X162459731Y-110097588D01*
X162693080Y-110271641D01*
X162955901Y-110396825D01*
X163103110Y-110441476D01*
X163333000Y-110320155D01*
X163333000Y-109127000D01*
X162139186Y-109127000D01*
X162018519Y-109356891D01*
X161238072Y-109356891D01*
X161238072Y-108643109D01*
X162018519Y-108643109D01*
X162139186Y-108873000D01*
X163333000Y-108873000D01*
X163333000Y-107679845D01*
X163587000Y-107679845D01*
X163587000Y-108873000D01*
X163607000Y-108873000D01*
X163607000Y-109127000D01*
X163587000Y-109127000D01*
X163587000Y-110320155D01*
X163816890Y-110441476D01*
X163964099Y-110396825D01*
X164226920Y-110271641D01*
X164460269Y-110097588D01*
X164536034Y-110013534D01*
X164560498Y-110094180D01*
X164619463Y-110204494D01*
X164698815Y-110301185D01*
X164795506Y-110380537D01*
X164905820Y-110439502D01*
X165025518Y-110475812D01*
X165150000Y-110488072D01*
X166850000Y-110488072D01*
X166974482Y-110475812D01*
X167094180Y-110439502D01*
X167204494Y-110380537D01*
X167301185Y-110301185D01*
X167380537Y-110204494D01*
X167439502Y-110094180D01*
X167475812Y-109974482D01*
X167488072Y-109850000D01*
X167488072Y-108150000D01*
X167475812Y-108025518D01*
X167439502Y-107905820D01*
X167380537Y-107795506D01*
X167301185Y-107698815D01*
X167204494Y-107619463D01*
X167094180Y-107560498D01*
X166974482Y-107524188D01*
X166850000Y-107511928D01*
X165150000Y-107511928D01*
X165025518Y-107524188D01*
X164905820Y-107560498D01*
X164795506Y-107619463D01*
X164698815Y-107698815D01*
X164619463Y-107795506D01*
X164560498Y-107905820D01*
X164536034Y-107986466D01*
X164460269Y-107902412D01*
X164226920Y-107728359D01*
X163964099Y-107603175D01*
X163816890Y-107558524D01*
X163587000Y-107679845D01*
X163333000Y-107679845D01*
X163103110Y-107558524D01*
X162955901Y-107603175D01*
X162693080Y-107728359D01*
X162459731Y-107902412D01*
X162264822Y-108118645D01*
X162115843Y-108368748D01*
X162018519Y-108643109D01*
X161238072Y-108643109D01*
X161238072Y-108150000D01*
X161225812Y-108025518D01*
X161189502Y-107905820D01*
X161130537Y-107795506D01*
X161051185Y-107698815D01*
X160954494Y-107619463D01*
X160844180Y-107560498D01*
X160724482Y-107524188D01*
X160600000Y-107511928D01*
X158900000Y-107511928D01*
X158775518Y-107524188D01*
X158655820Y-107560498D01*
X158545506Y-107619463D01*
X158448815Y-107698815D01*
X158369463Y-107795506D01*
X158310498Y-107905820D01*
X158286034Y-107986466D01*
X158210269Y-107902412D01*
X157976920Y-107728359D01*
X157714099Y-107603175D01*
X157566890Y-107558524D01*
X157337000Y-107679845D01*
X157083000Y-107679845D01*
X156853110Y-107558524D01*
X156705901Y-107603175D01*
X156443080Y-107728359D01*
X156209731Y-107902412D01*
X156014822Y-108118645D01*
X155865843Y-108368748D01*
X155768519Y-108643109D01*
X154988072Y-108643109D01*
X154988072Y-108150000D01*
X154975812Y-108025518D01*
X154939502Y-107905820D01*
X154880537Y-107795506D01*
X154801185Y-107698815D01*
X154704494Y-107619463D01*
X154594180Y-107560498D01*
X154474482Y-107524188D01*
X154350000Y-107511928D01*
X152650000Y-107511928D01*
X152525518Y-107524188D01*
X152405820Y-107560498D01*
X152295506Y-107619463D01*
X152198815Y-107698815D01*
X152119463Y-107795506D01*
X152060498Y-107905820D01*
X152036034Y-107986466D01*
X151960269Y-107902412D01*
X151726920Y-107728359D01*
X151464099Y-107603175D01*
X151316890Y-107558524D01*
X151087000Y-107679845D01*
X150833000Y-107679845D01*
X150603110Y-107558524D01*
X150455901Y-107603175D01*
X150193080Y-107728359D01*
X149959731Y-107902412D01*
X149764822Y-108118645D01*
X149615843Y-108368748D01*
X149518519Y-108643109D01*
X148738072Y-108643109D01*
X148738072Y-108150000D01*
X148725812Y-108025518D01*
X148689502Y-107905820D01*
X148630537Y-107795506D01*
X148551185Y-107698815D01*
X148454494Y-107619463D01*
X148344180Y-107560498D01*
X148224482Y-107524188D01*
X148125935Y-107514482D01*
X148122195Y-107476510D01*
X148071589Y-107309687D01*
X147989411Y-107155941D01*
X147878817Y-107021183D01*
X147845051Y-106993472D01*
X143135000Y-102283422D01*
X143135000Y-102120000D01*
X158078057Y-102120000D01*
X158105764Y-102401309D01*
X158187818Y-102671808D01*
X158321068Y-102921101D01*
X158500392Y-103139608D01*
X158718899Y-103318932D01*
X158968192Y-103452182D01*
X159238691Y-103534236D01*
X159449508Y-103555000D01*
X159590492Y-103555000D01*
X159801309Y-103534236D01*
X160071808Y-103452182D01*
X160321101Y-103318932D01*
X160539608Y-103139608D01*
X160718932Y-102921101D01*
X160852182Y-102671808D01*
X160934236Y-102401309D01*
X160961943Y-102120000D01*
X160934236Y-101838691D01*
X160852182Y-101568192D01*
X160718932Y-101318899D01*
X160539608Y-101100392D01*
X160321101Y-100921068D01*
X160071808Y-100787818D01*
X159801309Y-100705764D01*
X159590492Y-100685000D01*
X159449508Y-100685000D01*
X159238691Y-100705764D01*
X158968192Y-100787818D01*
X158718899Y-100921068D01*
X158500392Y-101100392D01*
X158321068Y-101318899D01*
X158187818Y-101568192D01*
X158105764Y-101838691D01*
X158078057Y-102120000D01*
X143135000Y-102120000D01*
X143135000Y-96134578D01*
X144375822Y-94893756D01*
X144389764Y-95035309D01*
X144471818Y-95305808D01*
X144605068Y-95555101D01*
X144784392Y-95773608D01*
X145002899Y-95952932D01*
X145135858Y-96024000D01*
X145002899Y-96095068D01*
X144784392Y-96274392D01*
X144605068Y-96492899D01*
X144471818Y-96742192D01*
X144389764Y-97012691D01*
X144362057Y-97294000D01*
X144389764Y-97575309D01*
X144471818Y-97845808D01*
X144605068Y-98095101D01*
X144784392Y-98313608D01*
X145002899Y-98492932D01*
X145135858Y-98564000D01*
X145002899Y-98635068D01*
X144784392Y-98814392D01*
X144605068Y-99032899D01*
X144471818Y-99282192D01*
X144389764Y-99552691D01*
X144362057Y-99834000D01*
X144389764Y-100115309D01*
X144471818Y-100385808D01*
X144605068Y-100635101D01*
X144784392Y-100853608D01*
X145002899Y-101032932D01*
X145252192Y-101166182D01*
X145522691Y-101248236D01*
X145733508Y-101269000D01*
X145874492Y-101269000D01*
X146085309Y-101248236D01*
X146355808Y-101166182D01*
X146605101Y-101032932D01*
X146823608Y-100853608D01*
X147002932Y-100635101D01*
X147136182Y-100385808D01*
X147190455Y-100206890D01*
X152458524Y-100206890D01*
X152503175Y-100354099D01*
X152628359Y-100616920D01*
X152802412Y-100850269D01*
X153018645Y-101045178D01*
X153268748Y-101194157D01*
X153543109Y-101291481D01*
X153773000Y-101170814D01*
X153773000Y-99977000D01*
X154027000Y-99977000D01*
X154027000Y-101170814D01*
X154256891Y-101291481D01*
X154531252Y-101194157D01*
X154781355Y-101045178D01*
X154997588Y-100850269D01*
X155171641Y-100616920D01*
X155296825Y-100354099D01*
X155341476Y-100206890D01*
X155220155Y-99977000D01*
X154027000Y-99977000D01*
X153773000Y-99977000D01*
X152579845Y-99977000D01*
X152458524Y-100206890D01*
X147190455Y-100206890D01*
X147218236Y-100115309D01*
X147245943Y-99834000D01*
X147218236Y-99552691D01*
X147136182Y-99282192D01*
X147002932Y-99032899D01*
X146823608Y-98814392D01*
X146605101Y-98635068D01*
X146472142Y-98564000D01*
X146605101Y-98492932D01*
X146823608Y-98313608D01*
X147002932Y-98095101D01*
X147136182Y-97845808D01*
X147218236Y-97575309D01*
X147245943Y-97294000D01*
X147218236Y-97012691D01*
X147136182Y-96742192D01*
X147002932Y-96492899D01*
X146823608Y-96274392D01*
X146605101Y-96095068D01*
X146472142Y-96024000D01*
X146605101Y-95952932D01*
X146823608Y-95773608D01*
X147002932Y-95555101D01*
X147136182Y-95305808D01*
X147218236Y-95035309D01*
X147245943Y-94754000D01*
X147218236Y-94472691D01*
X147136182Y-94202192D01*
X147002932Y-93952899D01*
X146823608Y-93734392D01*
X146605101Y-93555068D01*
X146472142Y-93484000D01*
X146605101Y-93412932D01*
X146823608Y-93233608D01*
X147002932Y-93015101D01*
X147136182Y-92765808D01*
X147218236Y-92495309D01*
X147244367Y-92230000D01*
X152407815Y-92230000D01*
X152436487Y-92521111D01*
X152521401Y-92801034D01*
X152659294Y-93059014D01*
X152844866Y-93285134D01*
X153070986Y-93470706D01*
X153125791Y-93500000D01*
X153070986Y-93529294D01*
X152844866Y-93714866D01*
X152659294Y-93940986D01*
X152521401Y-94198966D01*
X152436487Y-94478889D01*
X152407815Y-94770000D01*
X152436487Y-95061111D01*
X152521401Y-95341034D01*
X152659294Y-95599014D01*
X152844866Y-95825134D01*
X153070986Y-96010706D01*
X153125791Y-96040000D01*
X153070986Y-96069294D01*
X152844866Y-96254866D01*
X152659294Y-96480986D01*
X152521401Y-96738966D01*
X152436487Y-97018889D01*
X152407815Y-97310000D01*
X152436487Y-97601111D01*
X152521401Y-97881034D01*
X152659294Y-98139014D01*
X152844866Y-98365134D01*
X153070986Y-98550706D01*
X153135523Y-98585201D01*
X153018645Y-98654822D01*
X152802412Y-98849731D01*
X152628359Y-99083080D01*
X152503175Y-99345901D01*
X152458524Y-99493110D01*
X152579845Y-99723000D01*
X153773000Y-99723000D01*
X153773000Y-99703000D01*
X154027000Y-99703000D01*
X154027000Y-99723000D01*
X155220155Y-99723000D01*
X155341476Y-99493110D01*
X155296825Y-99345901D01*
X155171641Y-99083080D01*
X154997588Y-98849731D01*
X154781355Y-98654822D01*
X154664477Y-98585201D01*
X154729014Y-98550706D01*
X154955134Y-98365134D01*
X155140706Y-98139014D01*
X155278599Y-97881034D01*
X155302573Y-97802000D01*
X158078057Y-97802000D01*
X158105764Y-98083309D01*
X158187818Y-98353808D01*
X158321068Y-98603101D01*
X158500392Y-98821608D01*
X158718899Y-99000932D01*
X158968192Y-99134182D01*
X159238691Y-99216236D01*
X159449508Y-99237000D01*
X159590492Y-99237000D01*
X159801309Y-99216236D01*
X160071808Y-99134182D01*
X160321101Y-99000932D01*
X160539608Y-98821608D01*
X160718932Y-98603101D01*
X160852182Y-98353808D01*
X160934236Y-98083309D01*
X160961943Y-97802000D01*
X160934236Y-97520691D01*
X160852182Y-97250192D01*
X160718932Y-97000899D01*
X160539608Y-96782392D01*
X160321101Y-96603068D01*
X160071808Y-96469818D01*
X159801309Y-96387764D01*
X159590492Y-96367000D01*
X159449508Y-96367000D01*
X159238691Y-96387764D01*
X158968192Y-96469818D01*
X158718899Y-96603068D01*
X158500392Y-96782392D01*
X158321068Y-97000899D01*
X158187818Y-97250192D01*
X158105764Y-97520691D01*
X158078057Y-97802000D01*
X155302573Y-97802000D01*
X155363513Y-97601111D01*
X155392185Y-97310000D01*
X155363513Y-97018889D01*
X155278599Y-96738966D01*
X155140706Y-96480986D01*
X154955134Y-96254866D01*
X154729014Y-96069294D01*
X154674209Y-96040000D01*
X154729014Y-96010706D01*
X154955134Y-95825134D01*
X155140706Y-95599014D01*
X155278599Y-95341034D01*
X155363513Y-95061111D01*
X155392185Y-94770000D01*
X155363513Y-94478889D01*
X155278599Y-94198966D01*
X155140706Y-93940986D01*
X154974120Y-93738000D01*
X158078057Y-93738000D01*
X158105764Y-94019309D01*
X158187818Y-94289808D01*
X158321068Y-94539101D01*
X158500392Y-94757608D01*
X158718899Y-94936932D01*
X158968192Y-95070182D01*
X159238691Y-95152236D01*
X159449508Y-95173000D01*
X159590492Y-95173000D01*
X159801309Y-95152236D01*
X160071808Y-95070182D01*
X160321101Y-94936932D01*
X160539608Y-94757608D01*
X160718932Y-94539101D01*
X160852182Y-94289808D01*
X160934236Y-94019309D01*
X160961943Y-93738000D01*
X160934236Y-93456691D01*
X160852182Y-93186192D01*
X160718932Y-92936899D01*
X160539608Y-92718392D01*
X160321101Y-92539068D01*
X160071808Y-92405818D01*
X159801309Y-92323764D01*
X159590492Y-92303000D01*
X159449508Y-92303000D01*
X159238691Y-92323764D01*
X158968192Y-92405818D01*
X158718899Y-92539068D01*
X158500392Y-92718392D01*
X158321068Y-92936899D01*
X158187818Y-93186192D01*
X158105764Y-93456691D01*
X158078057Y-93738000D01*
X154974120Y-93738000D01*
X154955134Y-93714866D01*
X154729014Y-93529294D01*
X154674209Y-93500000D01*
X154729014Y-93470706D01*
X154955134Y-93285134D01*
X155140706Y-93059014D01*
X155278599Y-92801034D01*
X155363513Y-92521111D01*
X155392185Y-92230000D01*
X155363513Y-91938889D01*
X155278599Y-91658966D01*
X155140706Y-91400986D01*
X154955134Y-91174866D01*
X154925313Y-91150393D01*
X154994180Y-91129502D01*
X155104494Y-91070537D01*
X155201185Y-90991185D01*
X155280537Y-90894494D01*
X155339502Y-90784180D01*
X155375812Y-90664482D01*
X155388072Y-90540000D01*
X155388072Y-89928000D01*
X158078057Y-89928000D01*
X158105764Y-90209309D01*
X158187818Y-90479808D01*
X158321068Y-90729101D01*
X158500392Y-90947608D01*
X158718899Y-91126932D01*
X158968192Y-91260182D01*
X159238691Y-91342236D01*
X159449508Y-91363000D01*
X159590492Y-91363000D01*
X159801309Y-91342236D01*
X160071808Y-91260182D01*
X160321101Y-91126932D01*
X160539608Y-90947608D01*
X160718932Y-90729101D01*
X160852182Y-90479808D01*
X160934236Y-90209309D01*
X160961943Y-89928000D01*
X160934236Y-89646691D01*
X160852182Y-89376192D01*
X160718932Y-89126899D01*
X160539608Y-88908392D01*
X160321101Y-88729068D01*
X160071808Y-88595818D01*
X159801309Y-88513764D01*
X159590492Y-88493000D01*
X159449508Y-88493000D01*
X159238691Y-88513764D01*
X158968192Y-88595818D01*
X158718899Y-88729068D01*
X158500392Y-88908392D01*
X158321068Y-89126899D01*
X158187818Y-89376192D01*
X158105764Y-89646691D01*
X158078057Y-89928000D01*
X155388072Y-89928000D01*
X155388072Y-88840000D01*
X155375812Y-88715518D01*
X155339502Y-88595820D01*
X155280537Y-88485506D01*
X155201185Y-88388815D01*
X155104494Y-88309463D01*
X154994180Y-88250498D01*
X154874482Y-88214188D01*
X154750000Y-88201928D01*
X153050000Y-88201928D01*
X152925518Y-88214188D01*
X152805820Y-88250498D01*
X152695506Y-88309463D01*
X152598815Y-88388815D01*
X152519463Y-88485506D01*
X152460498Y-88595820D01*
X152424188Y-88715518D01*
X152411928Y-88840000D01*
X152411928Y-90540000D01*
X152424188Y-90664482D01*
X152460498Y-90784180D01*
X152519463Y-90894494D01*
X152598815Y-90991185D01*
X152695506Y-91070537D01*
X152805820Y-91129502D01*
X152874687Y-91150393D01*
X152844866Y-91174866D01*
X152659294Y-91400986D01*
X152521401Y-91658966D01*
X152436487Y-91938889D01*
X152407815Y-92230000D01*
X147244367Y-92230000D01*
X147245943Y-92214000D01*
X147218236Y-91932691D01*
X147136182Y-91662192D01*
X147002932Y-91412899D01*
X146823608Y-91194392D01*
X146689000Y-91083922D01*
X146689000Y-88003500D01*
X165095292Y-88003500D01*
X166065198Y-88973406D01*
X166025363Y-89013241D01*
X165868320Y-89248273D01*
X165760147Y-89509426D01*
X165705000Y-89786665D01*
X165705000Y-90069335D01*
X165760147Y-90346574D01*
X165868320Y-90607727D01*
X166025363Y-90842759D01*
X166225241Y-91042637D01*
X166255000Y-91062521D01*
X166255001Y-92603478D01*
X166225241Y-92623363D01*
X166025363Y-92823241D01*
X165868320Y-93058273D01*
X165760147Y-93319426D01*
X165705000Y-93596665D01*
X165705000Y-93879335D01*
X165760147Y-94156574D01*
X165868320Y-94417727D01*
X166025363Y-94652759D01*
X166225241Y-94852637D01*
X166255000Y-94872521D01*
X166255001Y-96667478D01*
X166225241Y-96687363D01*
X166025363Y-96887241D01*
X165868320Y-97122273D01*
X165760147Y-97383426D01*
X165705000Y-97660665D01*
X165705000Y-97943335D01*
X165760147Y-98220574D01*
X165868320Y-98481727D01*
X166025363Y-98716759D01*
X166225241Y-98916637D01*
X166255000Y-98936521D01*
X166255001Y-100985478D01*
X166225241Y-101005363D01*
X166025363Y-101205241D01*
X165868320Y-101440273D01*
X165760147Y-101701426D01*
X165705000Y-101978665D01*
X165705000Y-102261335D01*
X165760147Y-102538574D01*
X165868320Y-102799727D01*
X166025363Y-103034759D01*
X166225241Y-103234637D01*
X166460273Y-103391680D01*
X166721426Y-103499853D01*
X166998665Y-103555000D01*
X167281335Y-103555000D01*
X167558574Y-103499853D01*
X167819727Y-103391680D01*
X168054759Y-103234637D01*
X168254637Y-103034759D01*
X168411680Y-102799727D01*
X168519853Y-102538574D01*
X168575000Y-102261335D01*
X168575000Y-101978665D01*
X168519853Y-101701426D01*
X168411680Y-101440273D01*
X168254637Y-101205241D01*
X168054759Y-101005363D01*
X168025000Y-100985479D01*
X168025000Y-98936521D01*
X168054759Y-98916637D01*
X168254637Y-98716759D01*
X168411680Y-98481727D01*
X168519853Y-98220574D01*
X168575000Y-97943335D01*
X168575000Y-97660665D01*
X168519853Y-97383426D01*
X168411680Y-97122273D01*
X168254637Y-96887241D01*
X168054759Y-96687363D01*
X168025000Y-96667479D01*
X168025000Y-94872521D01*
X168054759Y-94852637D01*
X168254637Y-94652759D01*
X168411680Y-94417727D01*
X168519853Y-94156574D01*
X168575000Y-93879335D01*
X168575000Y-93596665D01*
X168519853Y-93319426D01*
X168411680Y-93058273D01*
X168254637Y-92823241D01*
X168054759Y-92623363D01*
X168025000Y-92603479D01*
X168025000Y-91062521D01*
X168054759Y-91042637D01*
X168254637Y-90842759D01*
X168411680Y-90607727D01*
X168519853Y-90346574D01*
X168575000Y-90069335D01*
X168575000Y-89786665D01*
X168519853Y-89509426D01*
X168411680Y-89248273D01*
X168254637Y-89013241D01*
X168054759Y-88813363D01*
X168029250Y-88796319D01*
X168025000Y-88753163D01*
X168025000Y-88753153D01*
X168012195Y-88623140D01*
X167961589Y-88456317D01*
X167879411Y-88302571D01*
X167846661Y-88262665D01*
X167796532Y-88201583D01*
X167796530Y-88201581D01*
X167768817Y-88167813D01*
X167735049Y-88140100D01*
X166118404Y-86523456D01*
X166090687Y-86489683D01*
X165955929Y-86379089D01*
X165802183Y-86296911D01*
X165635360Y-86246305D01*
X165505347Y-86233500D01*
X165505339Y-86233500D01*
X165461870Y-86229219D01*
X165418401Y-86233500D01*
X146689000Y-86233500D01*
X146689000Y-84844970D01*
X149430844Y-84844970D01*
X149475495Y-84992179D01*
X149600679Y-85255000D01*
X149774732Y-85488349D01*
X149990965Y-85683258D01*
X150241068Y-85832237D01*
X150515429Y-85929561D01*
X150745320Y-85808894D01*
X150745320Y-84615080D01*
X150999320Y-84615080D01*
X150999320Y-85808894D01*
X151229211Y-85929561D01*
X151503572Y-85832237D01*
X151753675Y-85683258D01*
X151969908Y-85488349D01*
X152143961Y-85255000D01*
X152269145Y-84992179D01*
X152313796Y-84844970D01*
X152192475Y-84615080D01*
X150999320Y-84615080D01*
X150745320Y-84615080D01*
X149552165Y-84615080D01*
X149430844Y-84844970D01*
X146689000Y-84844970D01*
X146689000Y-83829843D01*
X146761759Y-83693720D01*
X146823800Y-83489197D01*
X146844749Y-83276500D01*
X146823800Y-83063803D01*
X146771533Y-82891500D01*
X149393449Y-82891500D01*
X149396508Y-82922562D01*
X149432818Y-83042260D01*
X149491783Y-83152574D01*
X149571135Y-83249265D01*
X149667826Y-83328617D01*
X149778140Y-83387582D01*
X149858786Y-83412046D01*
X149774732Y-83487811D01*
X149600679Y-83721160D01*
X149475495Y-83983981D01*
X149430844Y-84131190D01*
X149552165Y-84361080D01*
X150745320Y-84361080D01*
X150745320Y-84341080D01*
X150999320Y-84341080D01*
X150999320Y-84361080D01*
X152192475Y-84361080D01*
X152313796Y-84131190D01*
X152269145Y-83983981D01*
X152143961Y-83721160D01*
X151969908Y-83487811D01*
X151885854Y-83412046D01*
X151966500Y-83387582D01*
X152076814Y-83328617D01*
X152173505Y-83249265D01*
X152252857Y-83152574D01*
X152311822Y-83042260D01*
X152348132Y-82922562D01*
X152360392Y-82798080D01*
X152360392Y-81098080D01*
X152348132Y-80973598D01*
X152311822Y-80853900D01*
X152252857Y-80743586D01*
X152173505Y-80646895D01*
X152076814Y-80567543D01*
X151966500Y-80508578D01*
X151846802Y-80472268D01*
X151722320Y-80460008D01*
X150022320Y-80460008D01*
X149897838Y-80472268D01*
X149778140Y-80508578D01*
X149667826Y-80567543D01*
X149571135Y-80646895D01*
X149491783Y-80743586D01*
X149432818Y-80853900D01*
X149396508Y-80973598D01*
X149384248Y-81098080D01*
X149384248Y-81121500D01*
X146841356Y-81121500D01*
X146839500Y-81022250D01*
X146680750Y-80863500D01*
X145581500Y-80863500D01*
X145581500Y-80883500D01*
X145327500Y-80883500D01*
X145327500Y-80863500D01*
X144228250Y-80863500D01*
X144069500Y-81022250D01*
X144067644Y-81121500D01*
X139522079Y-81121500D01*
X138687079Y-80286500D01*
X144066428Y-80286500D01*
X144069500Y-80450750D01*
X144228250Y-80609500D01*
X145327500Y-80609500D01*
X145327500Y-79810250D01*
X145581500Y-79810250D01*
X145581500Y-80609500D01*
X146680750Y-80609500D01*
X146839500Y-80450750D01*
X146842572Y-80286500D01*
X146830312Y-80162018D01*
X146794002Y-80042320D01*
X146735037Y-79932006D01*
X146655685Y-79835315D01*
X146558994Y-79755963D01*
X146448680Y-79696998D01*
X146328982Y-79660688D01*
X146204500Y-79648428D01*
X145740250Y-79651500D01*
X145581500Y-79810250D01*
X145327500Y-79810250D01*
X145168750Y-79651500D01*
X144704500Y-79648428D01*
X144580018Y-79660688D01*
X144460320Y-79696998D01*
X144350006Y-79755963D01*
X144253315Y-79835315D01*
X144173963Y-79932006D01*
X144114998Y-80042320D01*
X144078688Y-80162018D01*
X144066428Y-80286500D01*
X138687079Y-80286500D01*
X136478989Y-78078410D01*
X149359724Y-78078410D01*
X149404375Y-78225619D01*
X149529559Y-78488440D01*
X149703612Y-78721789D01*
X149919845Y-78916698D01*
X150169948Y-79065677D01*
X150444309Y-79163001D01*
X150674200Y-79042334D01*
X150674200Y-77848520D01*
X150928200Y-77848520D01*
X150928200Y-79042334D01*
X151158091Y-79163001D01*
X151432452Y-79065677D01*
X151682555Y-78916698D01*
X151898788Y-78721789D01*
X152072841Y-78488440D01*
X152198025Y-78225619D01*
X152242676Y-78078410D01*
X152121355Y-77848520D01*
X150928200Y-77848520D01*
X150674200Y-77848520D01*
X149481045Y-77848520D01*
X149359724Y-78078410D01*
X136478989Y-78078410D01*
X135302802Y-76902223D01*
X135305180Y-76901502D01*
X135415494Y-76842537D01*
X135512185Y-76763185D01*
X135591537Y-76666494D01*
X135650502Y-76556180D01*
X135686812Y-76436482D01*
X135699072Y-76312000D01*
X135699072Y-75212000D01*
X144917606Y-75212000D01*
X144951105Y-75552119D01*
X145050314Y-75879168D01*
X145211421Y-76180578D01*
X145428234Y-76444766D01*
X145692422Y-76661579D01*
X145993832Y-76822686D01*
X146320881Y-76921895D01*
X146575775Y-76947000D01*
X146746225Y-76947000D01*
X147001119Y-76921895D01*
X147328168Y-76822686D01*
X147629578Y-76661579D01*
X147893766Y-76444766D01*
X148110579Y-76180578D01*
X148155252Y-76097000D01*
X149319577Y-76097000D01*
X149325388Y-76156002D01*
X149361698Y-76275700D01*
X149420663Y-76386014D01*
X149500015Y-76482705D01*
X149596706Y-76562057D01*
X149707020Y-76621022D01*
X149787666Y-76645486D01*
X149703612Y-76721251D01*
X149529559Y-76954600D01*
X149404375Y-77217421D01*
X149359724Y-77364630D01*
X149481045Y-77594520D01*
X150674200Y-77594520D01*
X150674200Y-77574520D01*
X150928200Y-77574520D01*
X150928200Y-77594520D01*
X152121355Y-77594520D01*
X152242676Y-77364630D01*
X152198025Y-77217421D01*
X152072841Y-76954600D01*
X151898788Y-76721251D01*
X151814734Y-76645486D01*
X151895380Y-76621022D01*
X152005694Y-76562057D01*
X152102385Y-76482705D01*
X152181737Y-76386014D01*
X152240702Y-76275700D01*
X152277012Y-76156002D01*
X152289272Y-76031520D01*
X152289272Y-74331520D01*
X152277012Y-74207038D01*
X152240702Y-74087340D01*
X152181737Y-73977026D01*
X152102385Y-73880335D01*
X152005694Y-73800983D01*
X151895380Y-73742018D01*
X151775682Y-73705708D01*
X151651200Y-73693448D01*
X149951200Y-73693448D01*
X149826718Y-73705708D01*
X149707020Y-73742018D01*
X149596706Y-73800983D01*
X149500015Y-73880335D01*
X149420663Y-73977026D01*
X149361698Y-74087340D01*
X149325388Y-74207038D01*
X149313573Y-74327000D01*
X148155252Y-74327000D01*
X148110579Y-74243422D01*
X147893766Y-73979234D01*
X147629578Y-73762421D01*
X147328168Y-73601314D01*
X147001119Y-73502105D01*
X146746225Y-73477000D01*
X146575775Y-73477000D01*
X146320881Y-73502105D01*
X145993832Y-73601314D01*
X145692422Y-73762421D01*
X145428234Y-73979234D01*
X145211421Y-74243422D01*
X145050314Y-74544832D01*
X144951105Y-74871881D01*
X144917606Y-75212000D01*
X135699072Y-75212000D01*
X135699072Y-74112000D01*
X135686812Y-73987518D01*
X135650502Y-73867820D01*
X135591537Y-73757506D01*
X135512185Y-73660815D01*
X135415494Y-73581463D01*
X135305180Y-73522498D01*
X135185482Y-73486188D01*
X135061000Y-73473928D01*
X132861000Y-73473928D01*
X132736518Y-73486188D01*
X132616820Y-73522498D01*
X132506506Y-73581463D01*
X132409815Y-73660815D01*
X132330463Y-73757506D01*
X132271498Y-73867820D01*
X132235188Y-73987518D01*
X132222928Y-74112000D01*
X123710000Y-74112000D01*
X123710000Y-73642124D01*
X123878528Y-73624411D01*
X123941529Y-73611479D01*
X124004774Y-73599414D01*
X124014265Y-73596549D01*
X124760014Y-73365701D01*
X124819305Y-73340777D01*
X124879003Y-73316658D01*
X124887750Y-73312006D01*
X124887754Y-73312004D01*
X124887757Y-73312002D01*
X125574465Y-72940700D01*
X125627774Y-72904743D01*
X125681661Y-72869480D01*
X125689343Y-72863214D01*
X126290854Y-72365601D01*
X126336173Y-72319965D01*
X126382175Y-72274916D01*
X126388494Y-72267278D01*
X126881895Y-71662307D01*
X126917480Y-71608747D01*
X126953863Y-71555611D01*
X126958578Y-71546891D01*
X127325077Y-70857607D01*
X127349594Y-70798125D01*
X127374950Y-70738965D01*
X127377881Y-70729495D01*
X127603518Y-69982150D01*
X127616016Y-69919031D01*
X127629396Y-69856080D01*
X127630432Y-69846221D01*
X127643789Y-69710000D01*
X166357876Y-69710000D01*
X166375589Y-69878528D01*
X166375589Y-69878528D01*
G37*
X166375589Y-69878528D02*
X166388521Y-69941529D01*
X166400586Y-70004774D01*
X166403451Y-70014265D01*
X166634299Y-70760014D01*
X166659223Y-70819305D01*
X166683342Y-70879003D01*
X166687997Y-70887755D01*
X167059300Y-71574465D01*
X167095257Y-71627774D01*
X167130520Y-71681661D01*
X167136786Y-71689343D01*
X167634399Y-72290854D01*
X167680035Y-72336173D01*
X167725084Y-72382175D01*
X167732722Y-72388494D01*
X168337693Y-72881895D01*
X168391253Y-72917480D01*
X168444389Y-72953863D01*
X168453109Y-72958578D01*
X169142393Y-73325077D01*
X169201875Y-73349594D01*
X169261035Y-73374950D01*
X169270505Y-73377881D01*
X170017850Y-73603518D01*
X170080969Y-73616016D01*
X170143920Y-73629396D01*
X170153777Y-73630432D01*
X170153779Y-73630432D01*
X170290000Y-73643789D01*
X170290001Y-77359313D01*
X170089210Y-77381835D01*
X170026285Y-77395210D01*
X169963140Y-77407713D01*
X169953670Y-77410645D01*
X169209549Y-77646694D01*
X169150422Y-77672036D01*
X169090907Y-77696566D01*
X169082187Y-77701281D01*
X168398087Y-78077368D01*
X168345000Y-78113717D01*
X168291391Y-78149335D01*
X168283753Y-78155654D01*
X167685730Y-78657455D01*
X167640716Y-78703421D01*
X167595044Y-78748776D01*
X167588784Y-78756453D01*
X167588779Y-78756458D01*
X167588775Y-78756463D01*
X167099613Y-79364858D01*
X167064398Y-79418672D01*
X167028392Y-79472054D01*
X167023739Y-79480807D01*
X166662060Y-80172634D01*
X166637962Y-80232280D01*
X166613017Y-80291621D01*
X166610152Y-80301111D01*
X166389738Y-81050012D01*
X166377684Y-81113202D01*
X166364740Y-81176259D01*
X166363773Y-81186125D01*
X166293019Y-81963575D01*
X166293468Y-82027892D01*
X166293019Y-82092275D01*
X166293986Y-82102141D01*
X166375589Y-82878528D01*
X166388521Y-82941529D01*
X166400586Y-83004774D01*
X166403451Y-83014265D01*
X166634299Y-83760014D01*
X166659223Y-83819305D01*
X166683342Y-83879003D01*
X166687997Y-83887755D01*
X167059300Y-84574465D01*
X167095257Y-84627774D01*
X167130520Y-84681661D01*
X167136786Y-84689343D01*
X167634399Y-85290854D01*
X167680035Y-85336173D01*
X167725084Y-85382175D01*
X167732722Y-85388494D01*
X168337693Y-85881895D01*
X168391253Y-85917480D01*
X168444389Y-85953863D01*
X168453109Y-85958578D01*
X169142393Y-86325077D01*
X169201875Y-86349594D01*
X169261035Y-86374950D01*
X169270505Y-86377881D01*
X170017850Y-86603518D01*
X170080969Y-86616016D01*
X170143920Y-86629396D01*
X170153777Y-86630432D01*
X170153779Y-86630432D01*
X170290000Y-86643789D01*
X170290001Y-124357875D01*
X170121472Y-124375588D01*
X170058447Y-124388526D01*
X169995225Y-124400586D01*
X169985735Y-124403451D01*
X169239985Y-124634299D01*
X169180636Y-124659247D01*
X169120997Y-124683343D01*
X169112249Y-124687994D01*
X169112245Y-124687996D01*
X169112244Y-124687997D01*
X168425535Y-125059300D01*
X168372226Y-125095257D01*
X168318339Y-125130520D01*
X168310657Y-125136785D01*
X167709146Y-125634399D01*
X167663827Y-125680035D01*
X167617825Y-125725084D01*
X167611506Y-125732723D01*
X167118104Y-126337693D01*
X167082508Y-126391269D01*
X167046137Y-126444388D01*
X167041427Y-126453101D01*
X167041422Y-126453109D01*
X167041419Y-126453117D01*
X166674923Y-127142393D01*
X166650418Y-127201847D01*
X166625050Y-127261035D01*
X166622119Y-127270505D01*
X166396482Y-128017850D01*
X166383986Y-128080963D01*
X166370604Y-128143920D01*
X166369568Y-128153779D01*
X166356211Y-128290000D01*
X160652041Y-128290000D01*
X160599704Y-127800265D01*
X160590424Y-127751617D01*
X160582333Y-127702745D01*
X160577901Y-127685972D01*
X160315135Y-126738471D01*
X160298036Y-126691997D01*
X160282071Y-126645100D01*
X160274959Y-126629276D01*
X159860971Y-125737414D01*
X159836514Y-125694362D01*
X159813100Y-125650695D01*
X159803500Y-125636245D01*
X159249406Y-124823974D01*
X159218229Y-124785474D01*
X159188014Y-124746239D01*
X159176183Y-124733552D01*
X158496864Y-124022685D01*
X158459819Y-123989795D01*
X158423600Y-123956020D01*
X158409863Y-123945441D01*
X158409856Y-123945435D01*
X158409850Y-123945431D01*
X157623556Y-123355065D01*
X157581659Y-123328681D01*
X157540389Y-123301261D01*
X157525100Y-123293063D01*
X156652936Y-122839043D01*
X156607261Y-122819843D01*
X156562097Y-122799546D01*
X156545679Y-122793957D01*
X156545675Y-122793955D01*
X156545671Y-122793954D01*
X155611067Y-122488479D01*
X155562897Y-122477003D01*
X155514998Y-122464348D01*
X155497883Y-122461514D01*
X154525934Y-122312785D01*
X154476513Y-122309329D01*
X154427213Y-122304669D01*
X154409865Y-122304669D01*
X153426676Y-122316681D01*
X153377378Y-122321341D01*
X153327955Y-122324797D01*
X153310840Y-122327631D01*
X152342814Y-122500063D01*
X152294936Y-122512713D01*
X152246745Y-122524194D01*
X152230322Y-122529785D01*
X151303459Y-122858003D01*
X151258262Y-122878316D01*
X151212620Y-122897502D01*
X151197337Y-122905697D01*
X151197332Y-122905699D01*
X151197328Y-122905702D01*
X150336520Y-123380893D01*
X150295255Y-123408310D01*
X150253353Y-123434697D01*
X150239608Y-123445282D01*
X149467967Y-124054687D01*
X149431750Y-124088461D01*
X149394704Y-124121351D01*
X149382872Y-124134039D01*
X148721124Y-124861290D01*
X148690905Y-124900531D01*
X148659733Y-124939025D01*
X148650132Y-124953475D01*
X148116049Y-125779041D01*
X148092652Y-125822677D01*
X148068178Y-125865759D01*
X148061066Y-125881583D01*
X147668991Y-126783294D01*
X147653024Y-126830198D01*
X147635927Y-126876666D01*
X147631495Y-126893439D01*
X147391958Y-127847078D01*
X147383872Y-127895923D01*
X147374587Y-127944597D01*
X147372954Y-127961868D01*
X147345977Y-128290000D01*
X127642125Y-128290000D01*
X127624412Y-128121472D01*
X127611474Y-128058447D01*
X127599414Y-127995225D01*
X127596549Y-127985735D01*
X127365701Y-127239985D01*
X127340753Y-127180636D01*
X127316657Y-127120997D01*
X127312003Y-127112244D01*
X126940700Y-126425535D01*
X126904743Y-126372226D01*
X126869480Y-126318339D01*
X126863215Y-126310657D01*
X126365601Y-125709146D01*
X126319965Y-125663827D01*
X126274916Y-125617825D01*
X126267277Y-125611506D01*
X125662307Y-125118104D01*
X125608731Y-125082508D01*
X125555612Y-125046137D01*
X125546899Y-125041427D01*
X125546891Y-125041422D01*
X125546883Y-125041419D01*
X124857607Y-124674923D01*
X124798153Y-124650418D01*
X124738965Y-124625050D01*
X124729495Y-124622119D01*
X123982150Y-124396482D01*
X123919037Y-124383986D01*
X123856080Y-124370604D01*
X123846221Y-124369568D01*
X123710000Y-124356211D01*
X123710000Y-109080891D01*
X129122519Y-109080891D01*
X129219843Y-109355252D01*
X129368822Y-109605355D01*
X129563731Y-109821588D01*
X129797080Y-109995641D01*
X130059901Y-110120825D01*
X130207110Y-110165476D01*
X130437000Y-110044155D01*
X130437000Y-108851000D01*
X129243186Y-108851000D01*
X129122519Y-109080891D01*
X123710000Y-109080891D01*
X123710000Y-108367109D01*
X129122519Y-108367109D01*
X129243186Y-108597000D01*
X130437000Y-108597000D01*
X130437000Y-107403845D01*
X130691000Y-107403845D01*
X130691000Y-108597000D01*
X130711000Y-108597000D01*
X130711000Y-108851000D01*
X130691000Y-108851000D01*
X130691000Y-110044155D01*
X130920890Y-110165476D01*
X131068099Y-110120825D01*
X131330920Y-109995641D01*
X131564269Y-109821588D01*
X131759178Y-109605355D01*
X131828799Y-109488477D01*
X131863294Y-109553014D01*
X132048866Y-109779134D01*
X132274986Y-109964706D01*
X132532966Y-110102599D01*
X132812889Y-110187513D01*
X133031050Y-110209000D01*
X133176950Y-110209000D01*
X133395111Y-110187513D01*
X133675034Y-110102599D01*
X133933014Y-109964706D01*
X134159134Y-109779134D01*
X134183607Y-109749313D01*
X134204498Y-109818180D01*
X134263463Y-109928494D01*
X134342815Y-110025185D01*
X134439506Y-110104537D01*
X134549820Y-110163502D01*
X134669518Y-110199812D01*
X134794000Y-110212072D01*
X136494000Y-110212072D01*
X136618482Y-110199812D01*
X136738180Y-110163502D01*
X136848494Y-110104537D01*
X136945185Y-110025185D01*
X137024537Y-109928494D01*
X137083502Y-109818180D01*
X137119812Y-109698482D01*
X137132072Y-109574000D01*
X137132072Y-109356891D01*
X140728519Y-109356891D01*
X140825843Y-109631252D01*
X140974822Y-109881355D01*
X141169731Y-110097588D01*
X141403080Y-110271641D01*
X141665901Y-110396825D01*
X141813110Y-110441476D01*
X142043000Y-110320155D01*
X142043000Y-109127000D01*
X140849186Y-109127000D01*
X140728519Y-109356891D01*
X137132072Y-109356891D01*
X137132072Y-108643109D01*
X140728519Y-108643109D01*
X140849186Y-108873000D01*
X142043000Y-108873000D01*
X142043000Y-107679845D01*
X141813110Y-107558524D01*
X141665901Y-107603175D01*
X141403080Y-107728359D01*
X141169731Y-107902412D01*
X140974822Y-108118645D01*
X140825843Y-108368748D01*
X140728519Y-108643109D01*
X137132072Y-108643109D01*
X137132072Y-107874000D01*
X137119812Y-107749518D01*
X137083502Y-107629820D01*
X137024537Y-107519506D01*
X136945185Y-107422815D01*
X136848494Y-107343463D01*
X136738180Y-107284498D01*
X136618482Y-107248188D01*
X136494000Y-107235928D01*
X134794000Y-107235928D01*
X134669518Y-107248188D01*
X134549820Y-107284498D01*
X134439506Y-107343463D01*
X134342815Y-107422815D01*
X134263463Y-107519506D01*
X134204498Y-107629820D01*
X134183607Y-107698687D01*
X134159134Y-107668866D01*
X133989000Y-107529241D01*
X133989000Y-104772665D01*
X135479000Y-104772665D01*
X135479000Y-105055335D01*
X135534147Y-105332574D01*
X135642320Y-105593727D01*
X135799363Y-105828759D01*
X135999241Y-106028637D01*
X136234273Y-106185680D01*
X136495426Y-106293853D01*
X136772665Y-106349000D01*
X137055335Y-106349000D01*
X137332574Y-106293853D01*
X137593727Y-106185680D01*
X137828759Y-106028637D01*
X138028637Y-105828759D01*
X138185680Y-105593727D01*
X138293853Y-105332574D01*
X138349000Y-105055335D01*
X138349000Y-104772665D01*
X138293853Y-104495426D01*
X138185680Y-104234273D01*
X138028637Y-103999241D01*
X137828759Y-103799363D01*
X137593727Y-103642320D01*
X137332574Y-103534147D01*
X137055335Y-103479000D01*
X136772665Y-103479000D01*
X136495426Y-103534147D01*
X136234273Y-103642320D01*
X135999241Y-103799363D01*
X135799363Y-103999241D01*
X135642320Y-104234273D01*
X135534147Y-104495426D01*
X135479000Y-104772665D01*
X133989000Y-104772665D01*
X133989000Y-100183039D01*
X136792096Y-100183039D01*
X136832754Y-100317087D01*
X136952963Y-100571420D01*
X137120481Y-100797414D01*
X137328869Y-100986385D01*
X137570119Y-101131070D01*
X137834960Y-101225909D01*
X138057000Y-101104624D01*
X138057000Y-99961000D01*
X138311000Y-99961000D01*
X138311000Y-101104624D01*
X138533040Y-101225909D01*
X138797881Y-101131070D01*
X139039131Y-100986385D01*
X139247519Y-100797414D01*
X139415037Y-100571420D01*
X139535246Y-100317087D01*
X139575904Y-100183039D01*
X139453915Y-99961000D01*
X138311000Y-99961000D01*
X138057000Y-99961000D01*
X136914085Y-99961000D01*
X136792096Y-100183039D01*
X133989000Y-100183039D01*
X133989000Y-94754000D01*
X136742057Y-94754000D01*
X136769764Y-95035309D01*
X136851818Y-95305808D01*
X136985068Y-95555101D01*
X137164392Y-95773608D01*
X137382899Y-95952932D01*
X137515858Y-96024000D01*
X137382899Y-96095068D01*
X137164392Y-96274392D01*
X136985068Y-96492899D01*
X136851818Y-96742192D01*
X136769764Y-97012691D01*
X136742057Y-97294000D01*
X136769764Y-97575309D01*
X136851818Y-97845808D01*
X136985068Y-98095101D01*
X137164392Y-98313608D01*
X137382899Y-98492932D01*
X137520682Y-98566579D01*
X137328869Y-98681615D01*
X137120481Y-98870586D01*
X136952963Y-99096580D01*
X136832754Y-99350913D01*
X136792096Y-99484961D01*
X136914085Y-99707000D01*
X138057000Y-99707000D01*
X138057000Y-99687000D01*
X138311000Y-99687000D01*
X138311000Y-99707000D01*
X139453915Y-99707000D01*
X139575904Y-99484961D01*
X139535246Y-99350913D01*
X139415037Y-99096580D01*
X139247519Y-98870586D01*
X139039131Y-98681615D01*
X138847318Y-98566579D01*
X138985101Y-98492932D01*
X139203608Y-98313608D01*
X139382932Y-98095101D01*
X139516182Y-97845808D01*
X139598236Y-97575309D01*
X139625943Y-97294000D01*
X139598236Y-97012691D01*
X139516182Y-96742192D01*
X139382932Y-96492899D01*
X139203608Y-96274392D01*
X138985101Y-96095068D01*
X138852142Y-96024000D01*
X138985101Y-95952932D01*
X139203608Y-95773608D01*
X139382932Y-95555101D01*
X139516182Y-95305808D01*
X139598236Y-95035309D01*
X139625943Y-94754000D01*
X139598236Y-94472691D01*
X139516182Y-94202192D01*
X139382932Y-93952899D01*
X139203608Y-93734392D01*
X139090518Y-93641581D01*
X139108482Y-93639812D01*
X139228180Y-93603502D01*
X139338494Y-93544537D01*
X139435185Y-93465185D01*
X139514537Y-93368494D01*
X139573502Y-93258180D01*
X139609812Y-93138482D01*
X139622072Y-93014000D01*
X139622072Y-91414000D01*
X139609812Y-91289518D01*
X139573502Y-91169820D01*
X139514537Y-91059506D01*
X139435185Y-90962815D01*
X139338494Y-90883463D01*
X139228180Y-90824498D01*
X139108482Y-90788188D01*
X138984000Y-90775928D01*
X137384000Y-90775928D01*
X137259518Y-90788188D01*
X137139820Y-90824498D01*
X137029506Y-90883463D01*
X136932815Y-90962815D01*
X136853463Y-91059506D01*
X136794498Y-91169820D01*
X136758188Y-91289518D01*
X136745928Y-91414000D01*
X136745928Y-93014000D01*
X136758188Y-93138482D01*
X136794498Y-93258180D01*
X136853463Y-93368494D01*
X136932815Y-93465185D01*
X137029506Y-93544537D01*
X137139820Y-93603502D01*
X137259518Y-93639812D01*
X137277482Y-93641581D01*
X137164392Y-93734392D01*
X136985068Y-93952899D01*
X136851818Y-94202192D01*
X136769764Y-94472691D01*
X136742057Y-94754000D01*
X133989000Y-94754000D01*
X133989000Y-88262665D01*
X135479000Y-88262665D01*
X135479000Y-88545335D01*
X135534147Y-88822574D01*
X135642320Y-89083727D01*
X135799363Y-89318759D01*
X135999241Y-89518637D01*
X136234273Y-89675680D01*
X136495426Y-89783853D01*
X136772665Y-89839000D01*
X137055335Y-89839000D01*
X137332574Y-89783853D01*
X137593727Y-89675680D01*
X137828759Y-89518637D01*
X138028637Y-89318759D01*
X138185680Y-89083727D01*
X138293853Y-88822574D01*
X138349000Y-88545335D01*
X138349000Y-88262665D01*
X138293853Y-87985426D01*
X138185680Y-87724273D01*
X138028637Y-87489241D01*
X137828759Y-87289363D01*
X137593727Y-87132320D01*
X137332574Y-87024147D01*
X137055335Y-86969000D01*
X136772665Y-86969000D01*
X136495426Y-87024147D01*
X136234273Y-87132320D01*
X135999241Y-87289363D01*
X135799363Y-87489241D01*
X135642320Y-87724273D01*
X135534147Y-87985426D01*
X135479000Y-88262665D01*
X133989000Y-88262665D01*
X133989000Y-87263208D01*
X135927406Y-85324802D01*
X135967241Y-85364637D01*
X136202273Y-85521680D01*
X136463426Y-85629853D01*
X136740665Y-85685000D01*
X137023335Y-85685000D01*
X137300574Y-85629853D01*
X137561727Y-85521680D01*
X137796759Y-85364637D01*
X137996637Y-85164759D01*
X138153680Y-84929727D01*
X138261853Y-84668574D01*
X138317000Y-84391335D01*
X138317000Y-84108665D01*
X138261853Y-83831426D01*
X138153680Y-83570273D01*
X137996637Y-83335241D01*
X137796759Y-83135363D01*
X137561727Y-82978320D01*
X137300574Y-82870147D01*
X137023335Y-82815000D01*
X136740665Y-82815000D01*
X136463426Y-82870147D01*
X136202273Y-82978320D01*
X135967241Y-83135363D01*
X135767363Y-83335241D01*
X135750319Y-83360750D01*
X135707163Y-83365000D01*
X135707153Y-83365000D01*
X135577140Y-83377805D01*
X135410317Y-83428411D01*
X135256571Y-83510589D01*
X135256569Y-83510590D01*
X135256570Y-83510590D01*
X135155583Y-83593468D01*
X135155581Y-83593470D01*
X135121813Y-83621183D01*
X135094100Y-83654951D01*
X132508956Y-86240096D01*
X132475183Y-86267813D01*
X132364589Y-86402572D01*
X132282411Y-86556318D01*
X132231805Y-86723141D01*
X132219000Y-86853154D01*
X132219000Y-86853161D01*
X132214719Y-86896630D01*
X132219000Y-86940099D01*
X132219001Y-107478433D01*
X132219000Y-107478443D01*
X132219000Y-107529241D01*
X132048866Y-107668866D01*
X131863294Y-107894986D01*
X131828799Y-107959523D01*
X131759178Y-107842645D01*
X131564269Y-107626412D01*
X131330920Y-107452359D01*
X131068099Y-107327175D01*
X130920890Y-107282524D01*
X130691000Y-107403845D01*
X130437000Y-107403845D01*
X130207110Y-107282524D01*
X130059901Y-107327175D01*
X129797080Y-107452359D01*
X129563731Y-107626412D01*
X129368822Y-107842645D01*
X129219843Y-108092748D01*
X129122519Y-108367109D01*
X123710000Y-108367109D01*
X123710000Y-105263039D01*
X127902096Y-105263039D01*
X127942754Y-105397087D01*
X128062963Y-105651420D01*
X128230481Y-105877414D01*
X128438869Y-106066385D01*
X128680119Y-106211070D01*
X128944960Y-106305909D01*
X129167000Y-106184624D01*
X129167000Y-105041000D01*
X129421000Y-105041000D01*
X129421000Y-106184624D01*
X129643040Y-106305909D01*
X129907881Y-106211070D01*
X130149131Y-106066385D01*
X130357519Y-105877414D01*
X130525037Y-105651420D01*
X130645246Y-105397087D01*
X130685904Y-105263039D01*
X130563915Y-105041000D01*
X129421000Y-105041000D01*
X129167000Y-105041000D01*
X128024085Y-105041000D01*
X127902096Y-105263039D01*
X123710000Y-105263039D01*
X123710000Y-104564961D01*
X127902096Y-104564961D01*
X128024085Y-104787000D01*
X129167000Y-104787000D01*
X129167000Y-103643376D01*
X129421000Y-103643376D01*
X129421000Y-104787000D01*
X130563915Y-104787000D01*
X130685904Y-104564961D01*
X130645246Y-104430913D01*
X130525037Y-104176580D01*
X130357519Y-103950586D01*
X130149131Y-103761615D01*
X129907881Y-103616930D01*
X129643040Y-103522091D01*
X129421000Y-103643376D01*
X129167000Y-103643376D01*
X128944960Y-103522091D01*
X128680119Y-103616930D01*
X128438869Y-103761615D01*
X128230481Y-103950586D01*
X128062963Y-104176580D01*
X127942754Y-104430913D01*
X127902096Y-104564961D01*
X123710000Y-104564961D01*
X123710000Y-88753039D01*
X127902096Y-88753039D01*
X127942754Y-88887087D01*
X128062963Y-89141420D01*
X128230481Y-89367414D01*
X128438869Y-89556385D01*
X128680119Y-89701070D01*
X128944960Y-89795909D01*
X129167000Y-89674624D01*
X129167000Y-88531000D01*
X129421000Y-88531000D01*
X129421000Y-89674624D01*
X129643040Y-89795909D01*
X129907881Y-89701070D01*
X130149131Y-89556385D01*
X130357519Y-89367414D01*
X130525037Y-89141420D01*
X130645246Y-88887087D01*
X130685904Y-88753039D01*
X130563915Y-88531000D01*
X129421000Y-88531000D01*
X129167000Y-88531000D01*
X128024085Y-88531000D01*
X127902096Y-88753039D01*
X123710000Y-88753039D01*
X123710000Y-88054961D01*
X127902096Y-88054961D01*
X128024085Y-88277000D01*
X129167000Y-88277000D01*
X129167000Y-87133376D01*
X129421000Y-87133376D01*
X129421000Y-88277000D01*
X130563915Y-88277000D01*
X130685904Y-88054961D01*
X130645246Y-87920913D01*
X130525037Y-87666580D01*
X130357519Y-87440586D01*
X130149131Y-87251615D01*
X129907881Y-87106930D01*
X129643040Y-87012091D01*
X129421000Y-87133376D01*
X129167000Y-87133376D01*
X128944960Y-87012091D01*
X128680119Y-87106930D01*
X128438869Y-87251615D01*
X128230481Y-87440586D01*
X128062963Y-87666580D01*
X127942754Y-87920913D01*
X127902096Y-88054961D01*
X123710000Y-88054961D01*
X123710000Y-84250000D01*
X127820057Y-84250000D01*
X127847764Y-84531309D01*
X127929818Y-84801808D01*
X128063068Y-85051101D01*
X128242392Y-85269608D01*
X128460899Y-85448932D01*
X128710192Y-85582182D01*
X128980691Y-85664236D01*
X129191508Y-85685000D01*
X129332492Y-85685000D01*
X129543309Y-85664236D01*
X129813808Y-85582182D01*
X130063101Y-85448932D01*
X130281608Y-85269608D01*
X130460932Y-85051101D01*
X130594182Y-84801808D01*
X130676236Y-84531309D01*
X130703943Y-84250000D01*
X130676236Y-83968691D01*
X130594182Y-83698192D01*
X130460932Y-83448899D01*
X130281608Y-83230392D01*
X130063101Y-83051068D01*
X129813808Y-82917818D01*
X129543309Y-82835764D01*
X129332492Y-82815000D01*
X129191508Y-82815000D01*
X128980691Y-82835764D01*
X128710192Y-82917818D01*
X128460899Y-83051068D01*
X128242392Y-83230392D01*
X128063068Y-83448899D01*
X127929818Y-83698192D01*
X127847764Y-83968691D01*
X127820057Y-84250000D01*
X123710000Y-84250000D01*
X123710000Y-74112000D01*
X132222928Y-74112000D01*
X132222928Y-76312000D01*
X132235188Y-76436482D01*
X132271498Y-76556180D01*
X132330463Y-76666494D01*
X132409815Y-76763185D01*
X132506506Y-76842537D01*
X132616820Y-76901502D01*
X132736518Y-76937812D01*
X132861000Y-76950072D01*
X133085317Y-76950072D01*
X133088805Y-76985489D01*
X133139411Y-77152312D01*
X133221589Y-77306058D01*
X133332183Y-77440817D01*
X133365956Y-77468534D01*
X138498970Y-82601549D01*
X138526683Y-82635317D01*
X138560451Y-82663030D01*
X138560453Y-82663032D01*
X138614785Y-82707621D01*
X138661441Y-82745911D01*
X138815187Y-82828089D01*
X138982010Y-82878695D01*
X139112023Y-82891500D01*
X139112033Y-82891500D01*
X139155499Y-82895781D01*
X139198965Y-82891500D01*
X144137467Y-82891500D01*
X144085200Y-83063803D01*
X144064251Y-83276500D01*
X144085200Y-83489197D01*
X144147241Y-83693720D01*
X144247991Y-83882210D01*
X144383578Y-84047422D01*
X144548790Y-84183009D01*
X144737280Y-84283759D01*
X144919001Y-84338883D01*
X144919000Y-87075023D01*
X144914718Y-87118500D01*
X144919001Y-87161987D01*
X144919000Y-91083922D01*
X144784392Y-91194392D01*
X144605068Y-91412899D01*
X144471818Y-91662192D01*
X144389764Y-91932691D01*
X144362057Y-92214000D01*
X144379125Y-92387296D01*
X141654956Y-95111466D01*
X141621183Y-95139183D01*
X141510589Y-95273942D01*
X141428411Y-95427688D01*
X141377805Y-95594511D01*
X141365000Y-95724524D01*
X141365000Y-95724531D01*
X141360719Y-95768000D01*
X141365000Y-95811469D01*
X141365001Y-102606521D01*
X141360719Y-102650000D01*
X141377805Y-102823490D01*
X141428412Y-102990313D01*
X141510590Y-103144059D01*
X141593468Y-103245046D01*
X141593471Y-103245049D01*
X141621184Y-103278817D01*
X141654952Y-103306530D01*
X146002872Y-107654451D01*
X145948815Y-107698815D01*
X145869463Y-107795506D01*
X145810498Y-107905820D01*
X145789607Y-107974687D01*
X145765134Y-107944866D01*
X145539014Y-107759294D01*
X145281034Y-107621401D01*
X145001111Y-107536487D01*
X144782950Y-107515000D01*
X144637050Y-107515000D01*
X144418889Y-107536487D01*
X144138966Y-107621401D01*
X143880986Y-107759294D01*
X143654866Y-107944866D01*
X143469294Y-108170986D01*
X143434799Y-108235523D01*
X143365178Y-108118645D01*
X143170269Y-107902412D01*
X142936920Y-107728359D01*
X142674099Y-107603175D01*
X142526890Y-107558524D01*
X142297000Y-107679845D01*
X142297000Y-108873000D01*
X142317000Y-108873000D01*
X142317000Y-109127000D01*
X142297000Y-109127000D01*
X142297000Y-110320155D01*
X142526890Y-110441476D01*
X142674099Y-110396825D01*
X142936920Y-110271641D01*
X143170269Y-110097588D01*
X143365178Y-109881355D01*
X143434799Y-109764477D01*
X143469294Y-109829014D01*
X143654866Y-110055134D01*
X143880986Y-110240706D01*
X144138966Y-110378599D01*
X144418889Y-110463513D01*
X144637050Y-110485000D01*
X144782950Y-110485000D01*
X145001111Y-110463513D01*
X145281034Y-110378599D01*
X145539014Y-110240706D01*
X145765134Y-110055134D01*
X145789607Y-110025313D01*
X145810498Y-110094180D01*
X145869463Y-110204494D01*
X145948815Y-110301185D01*
X146045506Y-110380537D01*
X146155820Y-110439502D01*
X146275518Y-110475812D01*
X146400000Y-110488072D01*
X148100000Y-110488072D01*
X148224482Y-110475812D01*
X148344180Y-110439502D01*
X148454494Y-110380537D01*
X148551185Y-110301185D01*
X148630537Y-110204494D01*
X148689502Y-110094180D01*
X148725812Y-109974482D01*
X148738072Y-109850000D01*
X148738072Y-109356891D01*
X149518519Y-109356891D01*
X149615843Y-109631252D01*
X149764822Y-109881355D01*
X149959731Y-110097588D01*
X150193080Y-110271641D01*
X150455901Y-110396825D01*
X150603110Y-110441476D01*
X150833000Y-110320155D01*
X150833000Y-109127000D01*
X149639186Y-109127000D01*
X149518519Y-109356891D01*
X148738072Y-109356891D01*
X148738072Y-108643109D01*
X149518519Y-108643109D01*
X149639186Y-108873000D01*
X150833000Y-108873000D01*
X150833000Y-107679845D01*
X151087000Y-107679845D01*
X151087000Y-108873000D01*
X151107000Y-108873000D01*
X151107000Y-109127000D01*
X151087000Y-109127000D01*
X151087000Y-110320155D01*
X151316890Y-110441476D01*
X151464099Y-110396825D01*
X151726920Y-110271641D01*
X151960269Y-110097588D01*
X152036034Y-110013534D01*
X152060498Y-110094180D01*
X152119463Y-110204494D01*
X152198815Y-110301185D01*
X152295506Y-110380537D01*
X152405820Y-110439502D01*
X152525518Y-110475812D01*
X152650000Y-110488072D01*
X154350000Y-110488072D01*
X154474482Y-110475812D01*
X154594180Y-110439502D01*
X154704494Y-110380537D01*
X154801185Y-110301185D01*
X154880537Y-110204494D01*
X154939502Y-110094180D01*
X154975812Y-109974482D01*
X154988072Y-109850000D01*
X154988072Y-109356891D01*
X155768519Y-109356891D01*
X155865843Y-109631252D01*
X156014822Y-109881355D01*
X156209731Y-110097588D01*
X156443080Y-110271641D01*
X156705901Y-110396825D01*
X156853110Y-110441476D01*
X157083000Y-110320155D01*
X157083000Y-109127000D01*
X155889186Y-109127000D01*
X155768519Y-109356891D01*
X154988072Y-109356891D01*
X154988072Y-108643109D01*
X155768519Y-108643109D01*
X155889186Y-108873000D01*
X157083000Y-108873000D01*
X157083000Y-107679845D01*
X157337000Y-107679845D01*
X157337000Y-108873000D01*
X157357000Y-108873000D01*
X157357000Y-109127000D01*
X157337000Y-109127000D01*
X157337000Y-110320155D01*
X157566890Y-110441476D01*
X157714099Y-110396825D01*
X157976920Y-110271641D01*
X158210269Y-110097588D01*
X158286034Y-110013534D01*
X158310498Y-110094180D01*
X158369463Y-110204494D01*
X158448815Y-110301185D01*
X158545506Y-110380537D01*
X158655820Y-110439502D01*
X158775518Y-110475812D01*
X158900000Y-110488072D01*
X160600000Y-110488072D01*
X160724482Y-110475812D01*
X160844180Y-110439502D01*
X160954494Y-110380537D01*
X161051185Y-110301185D01*
X161130537Y-110204494D01*
X161189502Y-110094180D01*
X161225812Y-109974482D01*
X161238072Y-109850000D01*
X161238072Y-109356891D01*
X162018519Y-109356891D01*
X162115843Y-109631252D01*
X162264822Y-109881355D01*
X162459731Y-110097588D01*
X162693080Y-110271641D01*
X162955901Y-110396825D01*
X163103110Y-110441476D01*
X163333000Y-110320155D01*
X163333000Y-109127000D01*
X162139186Y-109127000D01*
X162018519Y-109356891D01*
X161238072Y-109356891D01*
X161238072Y-108643109D01*
X162018519Y-108643109D01*
X162139186Y-108873000D01*
X163333000Y-108873000D01*
X163333000Y-107679845D01*
X163587000Y-107679845D01*
X163587000Y-108873000D01*
X163607000Y-108873000D01*
X163607000Y-109127000D01*
X163587000Y-109127000D01*
X163587000Y-110320155D01*
X163816890Y-110441476D01*
X163964099Y-110396825D01*
X164226920Y-110271641D01*
X164460269Y-110097588D01*
X164536034Y-110013534D01*
X164560498Y-110094180D01*
X164619463Y-110204494D01*
X164698815Y-110301185D01*
X164795506Y-110380537D01*
X164905820Y-110439502D01*
X165025518Y-110475812D01*
X165150000Y-110488072D01*
X166850000Y-110488072D01*
X166974482Y-110475812D01*
X167094180Y-110439502D01*
X167204494Y-110380537D01*
X167301185Y-110301185D01*
X167380537Y-110204494D01*
X167439502Y-110094180D01*
X167475812Y-109974482D01*
X167488072Y-109850000D01*
X167488072Y-108150000D01*
X167475812Y-108025518D01*
X167439502Y-107905820D01*
X167380537Y-107795506D01*
X167301185Y-107698815D01*
X167204494Y-107619463D01*
X167094180Y-107560498D01*
X166974482Y-107524188D01*
X166850000Y-107511928D01*
X165150000Y-107511928D01*
X165025518Y-107524188D01*
X164905820Y-107560498D01*
X164795506Y-107619463D01*
X164698815Y-107698815D01*
X164619463Y-107795506D01*
X164560498Y-107905820D01*
X164536034Y-107986466D01*
X164460269Y-107902412D01*
X164226920Y-107728359D01*
X163964099Y-107603175D01*
X163816890Y-107558524D01*
X163587000Y-107679845D01*
X163333000Y-107679845D01*
X163103110Y-107558524D01*
X162955901Y-107603175D01*
X162693080Y-107728359D01*
X162459731Y-107902412D01*
X162264822Y-108118645D01*
X162115843Y-108368748D01*
X162018519Y-108643109D01*
X161238072Y-108643109D01*
X161238072Y-108150000D01*
X161225812Y-108025518D01*
X161189502Y-107905820D01*
X161130537Y-107795506D01*
X161051185Y-107698815D01*
X160954494Y-107619463D01*
X160844180Y-107560498D01*
X160724482Y-107524188D01*
X160600000Y-107511928D01*
X158900000Y-107511928D01*
X158775518Y-107524188D01*
X158655820Y-107560498D01*
X158545506Y-107619463D01*
X158448815Y-107698815D01*
X158369463Y-107795506D01*
X158310498Y-107905820D01*
X158286034Y-107986466D01*
X158210269Y-107902412D01*
X157976920Y-107728359D01*
X157714099Y-107603175D01*
X157566890Y-107558524D01*
X157337000Y-107679845D01*
X157083000Y-107679845D01*
X156853110Y-107558524D01*
X156705901Y-107603175D01*
X156443080Y-107728359D01*
X156209731Y-107902412D01*
X156014822Y-108118645D01*
X155865843Y-108368748D01*
X155768519Y-108643109D01*
X154988072Y-108643109D01*
X154988072Y-108150000D01*
X154975812Y-108025518D01*
X154939502Y-107905820D01*
X154880537Y-107795506D01*
X154801185Y-107698815D01*
X154704494Y-107619463D01*
X154594180Y-107560498D01*
X154474482Y-107524188D01*
X154350000Y-107511928D01*
X152650000Y-107511928D01*
X152525518Y-107524188D01*
X152405820Y-107560498D01*
X152295506Y-107619463D01*
X152198815Y-107698815D01*
X152119463Y-107795506D01*
X152060498Y-107905820D01*
X152036034Y-107986466D01*
X151960269Y-107902412D01*
X151726920Y-107728359D01*
X151464099Y-107603175D01*
X151316890Y-107558524D01*
X151087000Y-107679845D01*
X150833000Y-107679845D01*
X150603110Y-107558524D01*
X150455901Y-107603175D01*
X150193080Y-107728359D01*
X149959731Y-107902412D01*
X149764822Y-108118645D01*
X149615843Y-108368748D01*
X149518519Y-108643109D01*
X148738072Y-108643109D01*
X148738072Y-108150000D01*
X148725812Y-108025518D01*
X148689502Y-107905820D01*
X148630537Y-107795506D01*
X148551185Y-107698815D01*
X148454494Y-107619463D01*
X148344180Y-107560498D01*
X148224482Y-107524188D01*
X148125935Y-107514482D01*
X148122195Y-107476510D01*
X148071589Y-107309687D01*
X147989411Y-107155941D01*
X147878817Y-107021183D01*
X147845051Y-106993472D01*
X143135000Y-102283422D01*
X143135000Y-102120000D01*
X158078057Y-102120000D01*
X158105764Y-102401309D01*
X158187818Y-102671808D01*
X158321068Y-102921101D01*
X158500392Y-103139608D01*
X158718899Y-103318932D01*
X158968192Y-103452182D01*
X159238691Y-103534236D01*
X159449508Y-103555000D01*
X159590492Y-103555000D01*
X159801309Y-103534236D01*
X160071808Y-103452182D01*
X160321101Y-103318932D01*
X160539608Y-103139608D01*
X160718932Y-102921101D01*
X160852182Y-102671808D01*
X160934236Y-102401309D01*
X160961943Y-102120000D01*
X160934236Y-101838691D01*
X160852182Y-101568192D01*
X160718932Y-101318899D01*
X160539608Y-101100392D01*
X160321101Y-100921068D01*
X160071808Y-100787818D01*
X159801309Y-100705764D01*
X159590492Y-100685000D01*
X159449508Y-100685000D01*
X159238691Y-100705764D01*
X158968192Y-100787818D01*
X158718899Y-100921068D01*
X158500392Y-101100392D01*
X158321068Y-101318899D01*
X158187818Y-101568192D01*
X158105764Y-101838691D01*
X158078057Y-102120000D01*
X143135000Y-102120000D01*
X143135000Y-96134578D01*
X144375822Y-94893756D01*
X144389764Y-95035309D01*
X144471818Y-95305808D01*
X144605068Y-95555101D01*
X144784392Y-95773608D01*
X145002899Y-95952932D01*
X145135858Y-96024000D01*
X145002899Y-96095068D01*
X144784392Y-96274392D01*
X144605068Y-96492899D01*
X144471818Y-96742192D01*
X144389764Y-97012691D01*
X144362057Y-97294000D01*
X144389764Y-97575309D01*
X144471818Y-97845808D01*
X144605068Y-98095101D01*
X144784392Y-98313608D01*
X145002899Y-98492932D01*
X145135858Y-98564000D01*
X145002899Y-98635068D01*
X144784392Y-98814392D01*
X144605068Y-99032899D01*
X144471818Y-99282192D01*
X144389764Y-99552691D01*
X144362057Y-99834000D01*
X144389764Y-100115309D01*
X144471818Y-100385808D01*
X144605068Y-100635101D01*
X144784392Y-100853608D01*
X145002899Y-101032932D01*
X145252192Y-101166182D01*
X145522691Y-101248236D01*
X145733508Y-101269000D01*
X145874492Y-101269000D01*
X146085309Y-101248236D01*
X146355808Y-101166182D01*
X146605101Y-101032932D01*
X146823608Y-100853608D01*
X147002932Y-100635101D01*
X147136182Y-100385808D01*
X147190455Y-100206890D01*
X152458524Y-100206890D01*
X152503175Y-100354099D01*
X152628359Y-100616920D01*
X152802412Y-100850269D01*
X153018645Y-101045178D01*
X153268748Y-101194157D01*
X153543109Y-101291481D01*
X153773000Y-101170814D01*
X153773000Y-99977000D01*
X154027000Y-99977000D01*
X154027000Y-101170814D01*
X154256891Y-101291481D01*
X154531252Y-101194157D01*
X154781355Y-101045178D01*
X154997588Y-100850269D01*
X155171641Y-100616920D01*
X155296825Y-100354099D01*
X155341476Y-100206890D01*
X155220155Y-99977000D01*
X154027000Y-99977000D01*
X153773000Y-99977000D01*
X152579845Y-99977000D01*
X152458524Y-100206890D01*
X147190455Y-100206890D01*
X147218236Y-100115309D01*
X147245943Y-99834000D01*
X147218236Y-99552691D01*
X147136182Y-99282192D01*
X147002932Y-99032899D01*
X146823608Y-98814392D01*
X146605101Y-98635068D01*
X146472142Y-98564000D01*
X146605101Y-98492932D01*
X146823608Y-98313608D01*
X147002932Y-98095101D01*
X147136182Y-97845808D01*
X147218236Y-97575309D01*
X147245943Y-97294000D01*
X147218236Y-97012691D01*
X147136182Y-96742192D01*
X147002932Y-96492899D01*
X146823608Y-96274392D01*
X146605101Y-96095068D01*
X146472142Y-96024000D01*
X146605101Y-95952932D01*
X146823608Y-95773608D01*
X147002932Y-95555101D01*
X147136182Y-95305808D01*
X147218236Y-95035309D01*
X147245943Y-94754000D01*
X147218236Y-94472691D01*
X147136182Y-94202192D01*
X147002932Y-93952899D01*
X146823608Y-93734392D01*
X146605101Y-93555068D01*
X146472142Y-93484000D01*
X146605101Y-93412932D01*
X146823608Y-93233608D01*
X147002932Y-93015101D01*
X147136182Y-92765808D01*
X147218236Y-92495309D01*
X147244367Y-92230000D01*
X152407815Y-92230000D01*
X152436487Y-92521111D01*
X152521401Y-92801034D01*
X152659294Y-93059014D01*
X152844866Y-93285134D01*
X153070986Y-93470706D01*
X153125791Y-93500000D01*
X153070986Y-93529294D01*
X152844866Y-93714866D01*
X152659294Y-93940986D01*
X152521401Y-94198966D01*
X152436487Y-94478889D01*
X152407815Y-94770000D01*
X152436487Y-95061111D01*
X152521401Y-95341034D01*
X152659294Y-95599014D01*
X152844866Y-95825134D01*
X153070986Y-96010706D01*
X153125791Y-96040000D01*
X153070986Y-96069294D01*
X152844866Y-96254866D01*
X152659294Y-96480986D01*
X152521401Y-96738966D01*
X152436487Y-97018889D01*
X152407815Y-97310000D01*
X152436487Y-97601111D01*
X152521401Y-97881034D01*
X152659294Y-98139014D01*
X152844866Y-98365134D01*
X153070986Y-98550706D01*
X153135523Y-98585201D01*
X153018645Y-98654822D01*
X152802412Y-98849731D01*
X152628359Y-99083080D01*
X152503175Y-99345901D01*
X152458524Y-99493110D01*
X152579845Y-99723000D01*
X153773000Y-99723000D01*
X153773000Y-99703000D01*
X154027000Y-99703000D01*
X154027000Y-99723000D01*
X155220155Y-99723000D01*
X155341476Y-99493110D01*
X155296825Y-99345901D01*
X155171641Y-99083080D01*
X154997588Y-98849731D01*
X154781355Y-98654822D01*
X154664477Y-98585201D01*
X154729014Y-98550706D01*
X154955134Y-98365134D01*
X155140706Y-98139014D01*
X155278599Y-97881034D01*
X155302573Y-97802000D01*
X158078057Y-97802000D01*
X158105764Y-98083309D01*
X158187818Y-98353808D01*
X158321068Y-98603101D01*
X158500392Y-98821608D01*
X158718899Y-99000932D01*
X158968192Y-99134182D01*
X159238691Y-99216236D01*
X159449508Y-99237000D01*
X159590492Y-99237000D01*
X159801309Y-99216236D01*
X160071808Y-99134182D01*
X160321101Y-99000932D01*
X160539608Y-98821608D01*
X160718932Y-98603101D01*
X160852182Y-98353808D01*
X160934236Y-98083309D01*
X160961943Y-97802000D01*
X160934236Y-97520691D01*
X160852182Y-97250192D01*
X160718932Y-97000899D01*
X160539608Y-96782392D01*
X160321101Y-96603068D01*
X160071808Y-96469818D01*
X159801309Y-96387764D01*
X159590492Y-96367000D01*
X159449508Y-96367000D01*
X159238691Y-96387764D01*
X158968192Y-96469818D01*
X158718899Y-96603068D01*
X158500392Y-96782392D01*
X158321068Y-97000899D01*
X158187818Y-97250192D01*
X158105764Y-97520691D01*
X158078057Y-97802000D01*
X155302573Y-97802000D01*
X155363513Y-97601111D01*
X155392185Y-97310000D01*
X155363513Y-97018889D01*
X155278599Y-96738966D01*
X155140706Y-96480986D01*
X154955134Y-96254866D01*
X154729014Y-96069294D01*
X154674209Y-96040000D01*
X154729014Y-96010706D01*
X154955134Y-95825134D01*
X155140706Y-95599014D01*
X155278599Y-95341034D01*
X155363513Y-95061111D01*
X155392185Y-94770000D01*
X155363513Y-94478889D01*
X155278599Y-94198966D01*
X155140706Y-93940986D01*
X154974120Y-93738000D01*
X158078057Y-93738000D01*
X158105764Y-94019309D01*
X158187818Y-94289808D01*
X158321068Y-94539101D01*
X158500392Y-94757608D01*
X158718899Y-94936932D01*
X158968192Y-95070182D01*
X159238691Y-95152236D01*
X159449508Y-95173000D01*
X159590492Y-95173000D01*
X159801309Y-95152236D01*
X160071808Y-95070182D01*
X160321101Y-94936932D01*
X160539608Y-94757608D01*
X160718932Y-94539101D01*
X160852182Y-94289808D01*
X160934236Y-94019309D01*
X160961943Y-93738000D01*
X160934236Y-93456691D01*
X160852182Y-93186192D01*
X160718932Y-92936899D01*
X160539608Y-92718392D01*
X160321101Y-92539068D01*
X160071808Y-92405818D01*
X159801309Y-92323764D01*
X159590492Y-92303000D01*
X159449508Y-92303000D01*
X159238691Y-92323764D01*
X158968192Y-92405818D01*
X158718899Y-92539068D01*
X158500392Y-92718392D01*
X158321068Y-92936899D01*
X158187818Y-93186192D01*
X158105764Y-93456691D01*
X158078057Y-93738000D01*
X154974120Y-93738000D01*
X154955134Y-93714866D01*
X154729014Y-93529294D01*
X154674209Y-93500000D01*
X154729014Y-93470706D01*
X154955134Y-93285134D01*
X155140706Y-93059014D01*
X155278599Y-92801034D01*
X155363513Y-92521111D01*
X155392185Y-92230000D01*
X155363513Y-91938889D01*
X155278599Y-91658966D01*
X155140706Y-91400986D01*
X154955134Y-91174866D01*
X154925313Y-91150393D01*
X154994180Y-91129502D01*
X155104494Y-91070537D01*
X155201185Y-90991185D01*
X155280537Y-90894494D01*
X155339502Y-90784180D01*
X155375812Y-90664482D01*
X155388072Y-90540000D01*
X155388072Y-89928000D01*
X158078057Y-89928000D01*
X158105764Y-90209309D01*
X158187818Y-90479808D01*
X158321068Y-90729101D01*
X158500392Y-90947608D01*
X158718899Y-91126932D01*
X158968192Y-91260182D01*
X159238691Y-91342236D01*
X159449508Y-91363000D01*
X159590492Y-91363000D01*
X159801309Y-91342236D01*
X160071808Y-91260182D01*
X160321101Y-91126932D01*
X160539608Y-90947608D01*
X160718932Y-90729101D01*
X160852182Y-90479808D01*
X160934236Y-90209309D01*
X160961943Y-89928000D01*
X160934236Y-89646691D01*
X160852182Y-89376192D01*
X160718932Y-89126899D01*
X160539608Y-88908392D01*
X160321101Y-88729068D01*
X160071808Y-88595818D01*
X159801309Y-88513764D01*
X159590492Y-88493000D01*
X159449508Y-88493000D01*
X159238691Y-88513764D01*
X158968192Y-88595818D01*
X158718899Y-88729068D01*
X158500392Y-88908392D01*
X158321068Y-89126899D01*
X158187818Y-89376192D01*
X158105764Y-89646691D01*
X158078057Y-89928000D01*
X155388072Y-89928000D01*
X155388072Y-88840000D01*
X155375812Y-88715518D01*
X155339502Y-88595820D01*
X155280537Y-88485506D01*
X155201185Y-88388815D01*
X155104494Y-88309463D01*
X154994180Y-88250498D01*
X154874482Y-88214188D01*
X154750000Y-88201928D01*
X153050000Y-88201928D01*
X152925518Y-88214188D01*
X152805820Y-88250498D01*
X152695506Y-88309463D01*
X152598815Y-88388815D01*
X152519463Y-88485506D01*
X152460498Y-88595820D01*
X152424188Y-88715518D01*
X152411928Y-88840000D01*
X152411928Y-90540000D01*
X152424188Y-90664482D01*
X152460498Y-90784180D01*
X152519463Y-90894494D01*
X152598815Y-90991185D01*
X152695506Y-91070537D01*
X152805820Y-91129502D01*
X152874687Y-91150393D01*
X152844866Y-91174866D01*
X152659294Y-91400986D01*
X152521401Y-91658966D01*
X152436487Y-91938889D01*
X152407815Y-92230000D01*
X147244367Y-92230000D01*
X147245943Y-92214000D01*
X147218236Y-91932691D01*
X147136182Y-91662192D01*
X147002932Y-91412899D01*
X146823608Y-91194392D01*
X146689000Y-91083922D01*
X146689000Y-88003500D01*
X165095292Y-88003500D01*
X166065198Y-88973406D01*
X166025363Y-89013241D01*
X165868320Y-89248273D01*
X165760147Y-89509426D01*
X165705000Y-89786665D01*
X165705000Y-90069335D01*
X165760147Y-90346574D01*
X165868320Y-90607727D01*
X166025363Y-90842759D01*
X166225241Y-91042637D01*
X166255000Y-91062521D01*
X166255001Y-92603478D01*
X166225241Y-92623363D01*
X166025363Y-92823241D01*
X165868320Y-93058273D01*
X165760147Y-93319426D01*
X165705000Y-93596665D01*
X165705000Y-93879335D01*
X165760147Y-94156574D01*
X165868320Y-94417727D01*
X166025363Y-94652759D01*
X166225241Y-94852637D01*
X166255000Y-94872521D01*
X166255001Y-96667478D01*
X166225241Y-96687363D01*
X166025363Y-96887241D01*
X165868320Y-97122273D01*
X165760147Y-97383426D01*
X165705000Y-97660665D01*
X165705000Y-97943335D01*
X165760147Y-98220574D01*
X165868320Y-98481727D01*
X166025363Y-98716759D01*
X166225241Y-98916637D01*
X166255000Y-98936521D01*
X166255001Y-100985478D01*
X166225241Y-101005363D01*
X166025363Y-101205241D01*
X165868320Y-101440273D01*
X165760147Y-101701426D01*
X165705000Y-101978665D01*
X165705000Y-102261335D01*
X165760147Y-102538574D01*
X165868320Y-102799727D01*
X166025363Y-103034759D01*
X166225241Y-103234637D01*
X166460273Y-103391680D01*
X166721426Y-103499853D01*
X166998665Y-103555000D01*
X167281335Y-103555000D01*
X167558574Y-103499853D01*
X167819727Y-103391680D01*
X168054759Y-103234637D01*
X168254637Y-103034759D01*
X168411680Y-102799727D01*
X168519853Y-102538574D01*
X168575000Y-102261335D01*
X168575000Y-101978665D01*
X168519853Y-101701426D01*
X168411680Y-101440273D01*
X168254637Y-101205241D01*
X168054759Y-101005363D01*
X168025000Y-100985479D01*
X168025000Y-98936521D01*
X168054759Y-98916637D01*
X168254637Y-98716759D01*
X168411680Y-98481727D01*
X168519853Y-98220574D01*
X168575000Y-97943335D01*
X168575000Y-97660665D01*
X168519853Y-97383426D01*
X168411680Y-97122273D01*
X168254637Y-96887241D01*
X168054759Y-96687363D01*
X168025000Y-96667479D01*
X168025000Y-94872521D01*
X168054759Y-94852637D01*
X168254637Y-94652759D01*
X168411680Y-94417727D01*
X168519853Y-94156574D01*
X168575000Y-93879335D01*
X168575000Y-93596665D01*
X168519853Y-93319426D01*
X168411680Y-93058273D01*
X168254637Y-92823241D01*
X168054759Y-92623363D01*
X168025000Y-92603479D01*
X168025000Y-91062521D01*
X168054759Y-91042637D01*
X168254637Y-90842759D01*
X168411680Y-90607727D01*
X168519853Y-90346574D01*
X168575000Y-90069335D01*
X168575000Y-89786665D01*
X168519853Y-89509426D01*
X168411680Y-89248273D01*
X168254637Y-89013241D01*
X168054759Y-88813363D01*
X168029250Y-88796319D01*
X168025000Y-88753163D01*
X168025000Y-88753153D01*
X168012195Y-88623140D01*
X167961589Y-88456317D01*
X167879411Y-88302571D01*
X167846661Y-88262665D01*
X167796532Y-88201583D01*
X167796530Y-88201581D01*
X167768817Y-88167813D01*
X167735049Y-88140100D01*
X166118404Y-86523456D01*
X166090687Y-86489683D01*
X165955929Y-86379089D01*
X165802183Y-86296911D01*
X165635360Y-86246305D01*
X165505347Y-86233500D01*
X165505339Y-86233500D01*
X165461870Y-86229219D01*
X165418401Y-86233500D01*
X146689000Y-86233500D01*
X146689000Y-84844970D01*
X149430844Y-84844970D01*
X149475495Y-84992179D01*
X149600679Y-85255000D01*
X149774732Y-85488349D01*
X149990965Y-85683258D01*
X150241068Y-85832237D01*
X150515429Y-85929561D01*
X150745320Y-85808894D01*
X150745320Y-84615080D01*
X150999320Y-84615080D01*
X150999320Y-85808894D01*
X151229211Y-85929561D01*
X151503572Y-85832237D01*
X151753675Y-85683258D01*
X151969908Y-85488349D01*
X152143961Y-85255000D01*
X152269145Y-84992179D01*
X152313796Y-84844970D01*
X152192475Y-84615080D01*
X150999320Y-84615080D01*
X150745320Y-84615080D01*
X149552165Y-84615080D01*
X149430844Y-84844970D01*
X146689000Y-84844970D01*
X146689000Y-83829843D01*
X146761759Y-83693720D01*
X146823800Y-83489197D01*
X146844749Y-83276500D01*
X146823800Y-83063803D01*
X146771533Y-82891500D01*
X149393449Y-82891500D01*
X149396508Y-82922562D01*
X149432818Y-83042260D01*
X149491783Y-83152574D01*
X149571135Y-83249265D01*
X149667826Y-83328617D01*
X149778140Y-83387582D01*
X149858786Y-83412046D01*
X149774732Y-83487811D01*
X149600679Y-83721160D01*
X149475495Y-83983981D01*
X149430844Y-84131190D01*
X149552165Y-84361080D01*
X150745320Y-84361080D01*
X150745320Y-84341080D01*
X150999320Y-84341080D01*
X150999320Y-84361080D01*
X152192475Y-84361080D01*
X152313796Y-84131190D01*
X152269145Y-83983981D01*
X152143961Y-83721160D01*
X151969908Y-83487811D01*
X151885854Y-83412046D01*
X151966500Y-83387582D01*
X152076814Y-83328617D01*
X152173505Y-83249265D01*
X152252857Y-83152574D01*
X152311822Y-83042260D01*
X152348132Y-82922562D01*
X152360392Y-82798080D01*
X152360392Y-81098080D01*
X152348132Y-80973598D01*
X152311822Y-80853900D01*
X152252857Y-80743586D01*
X152173505Y-80646895D01*
X152076814Y-80567543D01*
X151966500Y-80508578D01*
X151846802Y-80472268D01*
X151722320Y-80460008D01*
X150022320Y-80460008D01*
X149897838Y-80472268D01*
X149778140Y-80508578D01*
X149667826Y-80567543D01*
X149571135Y-80646895D01*
X149491783Y-80743586D01*
X149432818Y-80853900D01*
X149396508Y-80973598D01*
X149384248Y-81098080D01*
X149384248Y-81121500D01*
X146841356Y-81121500D01*
X146839500Y-81022250D01*
X146680750Y-80863500D01*
X145581500Y-80863500D01*
X145581500Y-80883500D01*
X145327500Y-80883500D01*
X145327500Y-80863500D01*
X144228250Y-80863500D01*
X144069500Y-81022250D01*
X144067644Y-81121500D01*
X139522079Y-81121500D01*
X138687079Y-80286500D01*
X144066428Y-80286500D01*
X144069500Y-80450750D01*
X144228250Y-80609500D01*
X145327500Y-80609500D01*
X145327500Y-79810250D01*
X145581500Y-79810250D01*
X145581500Y-80609500D01*
X146680750Y-80609500D01*
X146839500Y-80450750D01*
X146842572Y-80286500D01*
X146830312Y-80162018D01*
X146794002Y-80042320D01*
X146735037Y-79932006D01*
X146655685Y-79835315D01*
X146558994Y-79755963D01*
X146448680Y-79696998D01*
X146328982Y-79660688D01*
X146204500Y-79648428D01*
X145740250Y-79651500D01*
X145581500Y-79810250D01*
X145327500Y-79810250D01*
X145168750Y-79651500D01*
X144704500Y-79648428D01*
X144580018Y-79660688D01*
X144460320Y-79696998D01*
X144350006Y-79755963D01*
X144253315Y-79835315D01*
X144173963Y-79932006D01*
X144114998Y-80042320D01*
X144078688Y-80162018D01*
X144066428Y-80286500D01*
X138687079Y-80286500D01*
X136478989Y-78078410D01*
X149359724Y-78078410D01*
X149404375Y-78225619D01*
X149529559Y-78488440D01*
X149703612Y-78721789D01*
X149919845Y-78916698D01*
X150169948Y-79065677D01*
X150444309Y-79163001D01*
X150674200Y-79042334D01*
X150674200Y-77848520D01*
X150928200Y-77848520D01*
X150928200Y-79042334D01*
X151158091Y-79163001D01*
X151432452Y-79065677D01*
X151682555Y-78916698D01*
X151898788Y-78721789D01*
X152072841Y-78488440D01*
X152198025Y-78225619D01*
X152242676Y-78078410D01*
X152121355Y-77848520D01*
X150928200Y-77848520D01*
X150674200Y-77848520D01*
X149481045Y-77848520D01*
X149359724Y-78078410D01*
X136478989Y-78078410D01*
X135302802Y-76902223D01*
X135305180Y-76901502D01*
X135415494Y-76842537D01*
X135512185Y-76763185D01*
X135591537Y-76666494D01*
X135650502Y-76556180D01*
X135686812Y-76436482D01*
X135699072Y-76312000D01*
X135699072Y-75212000D01*
X144917606Y-75212000D01*
X144951105Y-75552119D01*
X145050314Y-75879168D01*
X145211421Y-76180578D01*
X145428234Y-76444766D01*
X145692422Y-76661579D01*
X145993832Y-76822686D01*
X146320881Y-76921895D01*
X146575775Y-76947000D01*
X146746225Y-76947000D01*
X147001119Y-76921895D01*
X147328168Y-76822686D01*
X147629578Y-76661579D01*
X147893766Y-76444766D01*
X148110579Y-76180578D01*
X148155252Y-76097000D01*
X149319577Y-76097000D01*
X149325388Y-76156002D01*
X149361698Y-76275700D01*
X149420663Y-76386014D01*
X149500015Y-76482705D01*
X149596706Y-76562057D01*
X149707020Y-76621022D01*
X149787666Y-76645486D01*
X149703612Y-76721251D01*
X149529559Y-76954600D01*
X149404375Y-77217421D01*
X149359724Y-77364630D01*
X149481045Y-77594520D01*
X150674200Y-77594520D01*
X150674200Y-77574520D01*
X150928200Y-77574520D01*
X150928200Y-77594520D01*
X152121355Y-77594520D01*
X152242676Y-77364630D01*
X152198025Y-77217421D01*
X152072841Y-76954600D01*
X151898788Y-76721251D01*
X151814734Y-76645486D01*
X151895380Y-76621022D01*
X152005694Y-76562057D01*
X152102385Y-76482705D01*
X152181737Y-76386014D01*
X152240702Y-76275700D01*
X152277012Y-76156002D01*
X152289272Y-76031520D01*
X152289272Y-74331520D01*
X152277012Y-74207038D01*
X152240702Y-74087340D01*
X152181737Y-73977026D01*
X152102385Y-73880335D01*
X152005694Y-73800983D01*
X151895380Y-73742018D01*
X151775682Y-73705708D01*
X151651200Y-73693448D01*
X149951200Y-73693448D01*
X149826718Y-73705708D01*
X149707020Y-73742018D01*
X149596706Y-73800983D01*
X149500015Y-73880335D01*
X149420663Y-73977026D01*
X149361698Y-74087340D01*
X149325388Y-74207038D01*
X149313573Y-74327000D01*
X148155252Y-74327000D01*
X148110579Y-74243422D01*
X147893766Y-73979234D01*
X147629578Y-73762421D01*
X147328168Y-73601314D01*
X147001119Y-73502105D01*
X146746225Y-73477000D01*
X146575775Y-73477000D01*
X146320881Y-73502105D01*
X145993832Y-73601314D01*
X145692422Y-73762421D01*
X145428234Y-73979234D01*
X145211421Y-74243422D01*
X145050314Y-74544832D01*
X144951105Y-74871881D01*
X144917606Y-75212000D01*
X135699072Y-75212000D01*
X135699072Y-74112000D01*
X135686812Y-73987518D01*
X135650502Y-73867820D01*
X135591537Y-73757506D01*
X135512185Y-73660815D01*
X135415494Y-73581463D01*
X135305180Y-73522498D01*
X135185482Y-73486188D01*
X135061000Y-73473928D01*
X132861000Y-73473928D01*
X132736518Y-73486188D01*
X132616820Y-73522498D01*
X132506506Y-73581463D01*
X132409815Y-73660815D01*
X132330463Y-73757506D01*
X132271498Y-73867820D01*
X132235188Y-73987518D01*
X132222928Y-74112000D01*
X123710000Y-74112000D01*
X123710000Y-73642124D01*
X123878528Y-73624411D01*
X123941529Y-73611479D01*
X124004774Y-73599414D01*
X124014265Y-73596549D01*
X124760014Y-73365701D01*
X124819305Y-73340777D01*
X124879003Y-73316658D01*
X124887750Y-73312006D01*
X124887754Y-73312004D01*
X124887757Y-73312002D01*
X125574465Y-72940700D01*
X125627774Y-72904743D01*
X125681661Y-72869480D01*
X125689343Y-72863214D01*
X126290854Y-72365601D01*
X126336173Y-72319965D01*
X126382175Y-72274916D01*
X126388494Y-72267278D01*
X126881895Y-71662307D01*
X126917480Y-71608747D01*
X126953863Y-71555611D01*
X126958578Y-71546891D01*
X127325077Y-70857607D01*
X127349594Y-70798125D01*
X127374950Y-70738965D01*
X127377881Y-70729495D01*
X127603518Y-69982150D01*
X127616016Y-69919031D01*
X127629396Y-69856080D01*
X127630432Y-69846221D01*
X127643789Y-69710000D01*
X166357876Y-69710000D01*
X166375589Y-69878528D01*
M02*
