G04 #@! TF.GenerationSoftware,KiCad,Pcbnew,5.1.4*
G04 #@! TF.CreationDate,2019-10-24T11:37:56-03:00*
G04 #@! TF.ProjectId,mows,6d6f7773-2e6b-4696-9361-645f70636258,rev?*
G04 #@! TF.SameCoordinates,Original*
G04 #@! TF.FileFunction,Legend,Top*
G04 #@! TF.FilePolarity,Positive*
%FSLAX46Y46*%
G04 Gerber Fmt 4.6, Leading zero omitted, Abs format (unit mm)*
G04 Created by KiCad (PCBNEW 5.1.4) date 2019-10-24 11:37:56*
%MOMM*%
%LPD*%
G04 APERTURE LIST*
%ADD10C,0.200000*%
%ADD11C,0.150000*%
%ADD12C,0.120000*%
G04 APERTURE END LIST*
D10*
X137971428Y-71792857D02*
X137971428Y-70592857D01*
X138371428Y-71450000D01*
X138771428Y-70592857D01*
X138771428Y-71792857D01*
X139571428Y-70592857D02*
X139800000Y-70592857D01*
X139914285Y-70650000D01*
X140028571Y-70764285D01*
X140085714Y-70992857D01*
X140085714Y-71392857D01*
X140028571Y-71621428D01*
X139914285Y-71735714D01*
X139800000Y-71792857D01*
X139571428Y-71792857D01*
X139457142Y-71735714D01*
X139342857Y-71621428D01*
X139285714Y-71392857D01*
X139285714Y-70992857D01*
X139342857Y-70764285D01*
X139457142Y-70650000D01*
X139571428Y-70592857D01*
X140485714Y-70592857D02*
X140771428Y-71792857D01*
X141000000Y-70935714D01*
X141228571Y-71792857D01*
X141514285Y-70592857D01*
X141914285Y-71735714D02*
X142085714Y-71792857D01*
X142371428Y-71792857D01*
X142485714Y-71735714D01*
X142542857Y-71678571D01*
X142600000Y-71564285D01*
X142600000Y-71450000D01*
X142542857Y-71335714D01*
X142485714Y-71278571D01*
X142371428Y-71221428D01*
X142142857Y-71164285D01*
X142028571Y-71107142D01*
X141971428Y-71050000D01*
X141914285Y-70935714D01*
X141914285Y-70821428D01*
X141971428Y-70707142D01*
X142028571Y-70650000D01*
X142142857Y-70592857D01*
X142428571Y-70592857D01*
X142600000Y-70650000D01*
X143971428Y-71735714D02*
X144085714Y-71792857D01*
X144314285Y-71792857D01*
X144428571Y-71735714D01*
X144485714Y-71621428D01*
X144485714Y-71564285D01*
X144428571Y-71450000D01*
X144314285Y-71392857D01*
X144142857Y-71392857D01*
X144028571Y-71335714D01*
X143971428Y-71221428D01*
X143971428Y-71164285D01*
X144028571Y-71050000D01*
X144142857Y-70992857D01*
X144314285Y-70992857D01*
X144428571Y-71050000D01*
X144828571Y-70992857D02*
X145285714Y-70992857D01*
X145000000Y-70592857D02*
X145000000Y-71621428D01*
X145057142Y-71735714D01*
X145171428Y-71792857D01*
X145285714Y-71792857D01*
X146200000Y-71792857D02*
X146200000Y-71164285D01*
X146142857Y-71050000D01*
X146028571Y-70992857D01*
X145800000Y-70992857D01*
X145685714Y-71050000D01*
X146200000Y-71735714D02*
X146085714Y-71792857D01*
X145800000Y-71792857D01*
X145685714Y-71735714D01*
X145628571Y-71621428D01*
X145628571Y-71507142D01*
X145685714Y-71392857D01*
X145800000Y-71335714D01*
X146085714Y-71335714D01*
X146200000Y-71278571D01*
X146600000Y-70992857D02*
X147057142Y-70992857D01*
X146771428Y-70592857D02*
X146771428Y-71621428D01*
X146828571Y-71735714D01*
X146942857Y-71792857D01*
X147057142Y-71792857D01*
X147457142Y-71792857D02*
X147457142Y-70992857D01*
X147457142Y-70592857D02*
X147400000Y-70650000D01*
X147457142Y-70707142D01*
X147514285Y-70650000D01*
X147457142Y-70592857D01*
X147457142Y-70707142D01*
X148200000Y-71792857D02*
X148085714Y-71735714D01*
X148028571Y-71678571D01*
X147971428Y-71564285D01*
X147971428Y-71221428D01*
X148028571Y-71107142D01*
X148085714Y-71050000D01*
X148200000Y-70992857D01*
X148371428Y-70992857D01*
X148485714Y-71050000D01*
X148542857Y-71107142D01*
X148600000Y-71221428D01*
X148600000Y-71564285D01*
X148542857Y-71678571D01*
X148485714Y-71735714D01*
X148371428Y-71792857D01*
X148200000Y-71792857D01*
X149114285Y-70992857D02*
X149114285Y-71792857D01*
X149114285Y-71107142D02*
X149171428Y-71050000D01*
X149285714Y-70992857D01*
X149457142Y-70992857D01*
X149571428Y-71050000D01*
X149628571Y-71164285D01*
X149628571Y-71792857D01*
X151000000Y-70992857D02*
X151285714Y-71792857D01*
X151571428Y-70992857D01*
X152657142Y-71792857D02*
X151971428Y-71792857D01*
X152314285Y-71792857D02*
X152314285Y-70592857D01*
X152200000Y-70764285D01*
X152085714Y-70878571D01*
X151971428Y-70935714D01*
X153228571Y-71792857D02*
X153457142Y-71792857D01*
X153571428Y-71735714D01*
X153628571Y-71678571D01*
X153742857Y-71507142D01*
X153800000Y-71278571D01*
X153800000Y-70821428D01*
X153742857Y-70707142D01*
X153685714Y-70650000D01*
X153571428Y-70592857D01*
X153342857Y-70592857D01*
X153228571Y-70650000D01*
X153171428Y-70707142D01*
X153114285Y-70821428D01*
X153114285Y-71107142D01*
X153171428Y-71221428D01*
X153228571Y-71278571D01*
X153342857Y-71335714D01*
X153571428Y-71335714D01*
X153685714Y-71278571D01*
X153742857Y-71221428D01*
X153800000Y-71107142D01*
X154942857Y-71792857D02*
X154257142Y-71792857D01*
X154600000Y-71792857D02*
X154600000Y-70592857D01*
X154485714Y-70764285D01*
X154371428Y-70878571D01*
X154257142Y-70935714D01*
X155685714Y-70592857D02*
X155800000Y-70592857D01*
X155914285Y-70650000D01*
X155971428Y-70707142D01*
X156028571Y-70821428D01*
X156085714Y-71050000D01*
X156085714Y-71335714D01*
X156028571Y-71564285D01*
X155971428Y-71678571D01*
X155914285Y-71735714D01*
X155800000Y-71792857D01*
X155685714Y-71792857D01*
X155571428Y-71735714D01*
X155514285Y-71678571D01*
X155457142Y-71564285D01*
X155400000Y-71335714D01*
X155400000Y-71050000D01*
X155457142Y-70821428D01*
X155514285Y-70707142D01*
X155571428Y-70650000D01*
X155685714Y-70592857D01*
D11*
X163119047Y-107071428D02*
X163880952Y-107071428D01*
X156619047Y-107071428D02*
X157380952Y-107071428D01*
X150619047Y-107071428D02*
X151380952Y-107071428D01*
X141869047Y-107071428D02*
X142630952Y-107071428D01*
X146869047Y-106821428D02*
X147630952Y-106821428D01*
X147250000Y-107202380D02*
X147250000Y-106440476D01*
X161619047Y-77821428D02*
X162380952Y-77821428D01*
X161869047Y-84571428D02*
X162630952Y-84571428D01*
X161619047Y-81821428D02*
X162380952Y-81821428D01*
X162000000Y-82202380D02*
X162000000Y-81440476D01*
X161619047Y-75071428D02*
X162380952Y-75071428D01*
X162000000Y-75452380D02*
X162000000Y-74690476D01*
X150202380Y-90452380D02*
X149869047Y-89976190D01*
X149630952Y-90452380D02*
X149630952Y-89452380D01*
X150011904Y-89452380D01*
X150107142Y-89500000D01*
X150154761Y-89547619D01*
X150202380Y-89642857D01*
X150202380Y-89785714D01*
X150154761Y-89880952D01*
X150107142Y-89928571D01*
X150011904Y-89976190D01*
X149630952Y-89976190D01*
X150583333Y-90404761D02*
X150726190Y-90452380D01*
X150964285Y-90452380D01*
X151059523Y-90404761D01*
X151107142Y-90357142D01*
X151154761Y-90261904D01*
X151154761Y-90166666D01*
X151107142Y-90071428D01*
X151059523Y-90023809D01*
X150964285Y-89976190D01*
X150773809Y-89928571D01*
X150678571Y-89880952D01*
X150630952Y-89833333D01*
X150583333Y-89738095D01*
X150583333Y-89642857D01*
X150630952Y-89547619D01*
X150678571Y-89500000D01*
X150773809Y-89452380D01*
X151011904Y-89452380D01*
X151154761Y-89500000D01*
X151440476Y-89452380D02*
X152011904Y-89452380D01*
X151726190Y-90452380D02*
X151726190Y-89452380D01*
X149464285Y-92904761D02*
X149607142Y-92952380D01*
X149845238Y-92952380D01*
X149940476Y-92904761D01*
X149988095Y-92857142D01*
X150035714Y-92761904D01*
X150035714Y-92666666D01*
X149988095Y-92571428D01*
X149940476Y-92523809D01*
X149845238Y-92476190D01*
X149654761Y-92428571D01*
X149559523Y-92380952D01*
X149511904Y-92333333D01*
X149464285Y-92238095D01*
X149464285Y-92142857D01*
X149511904Y-92047619D01*
X149559523Y-92000000D01*
X149654761Y-91952380D01*
X149892857Y-91952380D01*
X150035714Y-92000000D01*
X151035714Y-92857142D02*
X150988095Y-92904761D01*
X150845238Y-92952380D01*
X150750000Y-92952380D01*
X150607142Y-92904761D01*
X150511904Y-92809523D01*
X150464285Y-92714285D01*
X150416666Y-92523809D01*
X150416666Y-92380952D01*
X150464285Y-92190476D01*
X150511904Y-92095238D01*
X150607142Y-92000000D01*
X150750000Y-91952380D01*
X150845238Y-91952380D01*
X150988095Y-92000000D01*
X151035714Y-92047619D01*
X151464285Y-92952380D02*
X151464285Y-91952380D01*
X152035714Y-92952380D02*
X151607142Y-92380952D01*
X152035714Y-91952380D02*
X151464285Y-92523809D01*
X148678571Y-95452380D02*
X148678571Y-94452380D01*
X149011904Y-95166666D01*
X149345238Y-94452380D01*
X149345238Y-95452380D01*
X149821428Y-95452380D02*
X149821428Y-94452380D01*
X150250000Y-95404761D02*
X150392857Y-95452380D01*
X150630952Y-95452380D01*
X150726190Y-95404761D01*
X150773809Y-95357142D01*
X150821428Y-95261904D01*
X150821428Y-95166666D01*
X150773809Y-95071428D01*
X150726190Y-95023809D01*
X150630952Y-94976190D01*
X150440476Y-94928571D01*
X150345238Y-94880952D01*
X150297619Y-94833333D01*
X150250000Y-94738095D01*
X150250000Y-94642857D01*
X150297619Y-94547619D01*
X150345238Y-94500000D01*
X150440476Y-94452380D01*
X150678571Y-94452380D01*
X150821428Y-94500000D01*
X151440476Y-94452380D02*
X151630952Y-94452380D01*
X151726190Y-94500000D01*
X151821428Y-94595238D01*
X151869047Y-94785714D01*
X151869047Y-95119047D01*
X151821428Y-95309523D01*
X151726190Y-95404761D01*
X151630952Y-95452380D01*
X151440476Y-95452380D01*
X151345238Y-95404761D01*
X151250000Y-95309523D01*
X151202380Y-95119047D01*
X151202380Y-94785714D01*
X151250000Y-94595238D01*
X151345238Y-94500000D01*
X151440476Y-94452380D01*
X148678571Y-97952380D02*
X148678571Y-96952380D01*
X149011904Y-97666666D01*
X149345238Y-96952380D01*
X149345238Y-97952380D01*
X150011904Y-96952380D02*
X150202380Y-96952380D01*
X150297619Y-97000000D01*
X150392857Y-97095238D01*
X150440476Y-97285714D01*
X150440476Y-97619047D01*
X150392857Y-97809523D01*
X150297619Y-97904761D01*
X150202380Y-97952380D01*
X150011904Y-97952380D01*
X149916666Y-97904761D01*
X149821428Y-97809523D01*
X149773809Y-97619047D01*
X149773809Y-97285714D01*
X149821428Y-97095238D01*
X149916666Y-97000000D01*
X150011904Y-96952380D01*
X150821428Y-97904761D02*
X150964285Y-97952380D01*
X151202380Y-97952380D01*
X151297619Y-97904761D01*
X151345238Y-97857142D01*
X151392857Y-97761904D01*
X151392857Y-97666666D01*
X151345238Y-97571428D01*
X151297619Y-97523809D01*
X151202380Y-97476190D01*
X151011904Y-97428571D01*
X150916666Y-97380952D01*
X150869047Y-97333333D01*
X150821428Y-97238095D01*
X150821428Y-97142857D01*
X150869047Y-97047619D01*
X150916666Y-97000000D01*
X151011904Y-96952380D01*
X151250000Y-96952380D01*
X151392857Y-97000000D01*
X151821428Y-97952380D02*
X151821428Y-96952380D01*
X171000000Y-86000000D02*
X171000000Y-125000000D01*
X171000000Y-73000000D02*
X171000000Y-78000000D01*
X171000000Y-86000000D02*
G75*
G02X171000000Y-78000000I0J4000000D01*
G01*
X148000000Y-129000000D02*
G75*
G02X160000000Y-129000000I6000000J0D01*
G01*
X167000000Y-129000000D02*
X160000000Y-129000000D01*
X147000000Y-129000000D02*
X148000000Y-129000000D01*
X127000000Y-129000000D02*
X147000000Y-129000000D01*
X127300000Y-122250000D02*
X127300000Y-107050000D01*
X139300000Y-122250000D02*
X127300000Y-122250000D01*
X139300000Y-107050000D02*
X139300000Y-122250000D01*
X127300000Y-107050000D02*
X139300000Y-107050000D01*
X127000000Y-69000000D02*
X167000000Y-69000000D01*
X123000000Y-125000000D02*
X123000000Y-73000000D01*
X123000000Y-125000000D02*
G75*
G02X127000000Y-129000000I0J-4000000D01*
G01*
X127000000Y-69000000D02*
G75*
G02X123000000Y-73000000I-4000000J0D01*
G01*
X171000000Y-73000000D02*
G75*
G02X167000000Y-69000000I0J4000000D01*
G01*
X167000000Y-129000000D02*
G75*
G02X171000000Y-125000000I4000000J0D01*
G01*
X149988095Y-99500000D02*
X149892857Y-99452380D01*
X149750000Y-99452380D01*
X149607142Y-99500000D01*
X149511904Y-99595238D01*
X149464285Y-99690476D01*
X149416666Y-99880952D01*
X149416666Y-100023809D01*
X149464285Y-100214285D01*
X149511904Y-100309523D01*
X149607142Y-100404761D01*
X149750000Y-100452380D01*
X149845238Y-100452380D01*
X149988095Y-100404761D01*
X150035714Y-100357142D01*
X150035714Y-100023809D01*
X149845238Y-100023809D01*
X150464285Y-100452380D02*
X150464285Y-99452380D01*
X151035714Y-100452380D01*
X151035714Y-99452380D01*
X151511904Y-100452380D02*
X151511904Y-99452380D01*
X151750000Y-99452380D01*
X151892857Y-99500000D01*
X151988095Y-99595238D01*
X152035714Y-99690476D01*
X152083333Y-99880952D01*
X152083333Y-100023809D01*
X152035714Y-100214285D01*
X151988095Y-100309523D01*
X151892857Y-100404761D01*
X151750000Y-100452380D01*
X151511904Y-100452380D01*
X135414000Y-111716380D02*
X135414000Y-110716380D01*
X135652095Y-110716380D01*
X135794952Y-110764000D01*
X135890190Y-110859238D01*
X135937809Y-110954476D01*
X135985428Y-111144952D01*
X135985428Y-111287809D01*
X135937809Y-111478285D01*
X135890190Y-111573523D01*
X135794952Y-111668761D01*
X135652095Y-111716380D01*
X135414000Y-111716380D01*
X136366380Y-111430666D02*
X136842571Y-111430666D01*
X136271142Y-111716380D02*
X136604476Y-110716380D01*
X136937809Y-111716380D01*
X137128285Y-110716380D02*
X137699714Y-110716380D01*
X137414000Y-111716380D02*
X137414000Y-110716380D01*
X137985428Y-111430666D02*
X138461619Y-111430666D01*
X137890190Y-111716380D02*
X138223523Y-110716380D01*
X138556857Y-111716380D01*
X131257142Y-110716380D02*
X131590476Y-111716380D01*
X131923809Y-110716380D01*
X132590476Y-111192571D02*
X132733333Y-111240190D01*
X132780952Y-111287809D01*
X132828571Y-111383047D01*
X132828571Y-111525904D01*
X132780952Y-111621142D01*
X132733333Y-111668761D01*
X132638095Y-111716380D01*
X132257142Y-111716380D01*
X132257142Y-110716380D01*
X132590476Y-110716380D01*
X132685714Y-110764000D01*
X132733333Y-110811619D01*
X132780952Y-110906857D01*
X132780952Y-111002095D01*
X132733333Y-111097333D01*
X132685714Y-111144952D01*
X132590476Y-111192571D01*
X132257142Y-111192571D01*
X133209523Y-111430666D02*
X133685714Y-111430666D01*
X133114285Y-111716380D02*
X133447619Y-110716380D01*
X133780952Y-111716380D01*
X133971428Y-110716380D02*
X134542857Y-110716380D01*
X134257142Y-111716380D02*
X134257142Y-110716380D01*
X128338095Y-110750000D02*
X128242857Y-110702380D01*
X128100000Y-110702380D01*
X127957142Y-110750000D01*
X127861904Y-110845238D01*
X127814285Y-110940476D01*
X127766666Y-111130952D01*
X127766666Y-111273809D01*
X127814285Y-111464285D01*
X127861904Y-111559523D01*
X127957142Y-111654761D01*
X128100000Y-111702380D01*
X128195238Y-111702380D01*
X128338095Y-111654761D01*
X128385714Y-111607142D01*
X128385714Y-111273809D01*
X128195238Y-111273809D01*
X128814285Y-111702380D02*
X128814285Y-110702380D01*
X129385714Y-111702380D01*
X129385714Y-110702380D01*
X129861904Y-111702380D02*
X129861904Y-110702380D01*
X130100000Y-110702380D01*
X130242857Y-110750000D01*
X130338095Y-110845238D01*
X130385714Y-110940476D01*
X130433333Y-111130952D01*
X130433333Y-111273809D01*
X130385714Y-111464285D01*
X130338095Y-111559523D01*
X130242857Y-111654761D01*
X130100000Y-111702380D01*
X129861904Y-111702380D01*
D12*
X148520000Y-107730000D02*
X148520000Y-109000000D01*
X147250000Y-107730000D02*
X148520000Y-107730000D01*
X141790000Y-110042929D02*
X141790000Y-110440000D01*
X142550000Y-110042929D02*
X142550000Y-110440000D01*
X141790000Y-119100000D02*
X141790000Y-113100000D01*
X142550000Y-119100000D02*
X141790000Y-119100000D01*
X142550000Y-113100000D02*
X142550000Y-119100000D01*
X143440000Y-110440000D02*
X143440000Y-113100000D01*
X144330000Y-110042929D02*
X144330000Y-110440000D01*
X145090000Y-110042929D02*
X145090000Y-110440000D01*
X144330000Y-119100000D02*
X144330000Y-113100000D01*
X145090000Y-119100000D02*
X144330000Y-119100000D01*
X145090000Y-113100000D02*
X145090000Y-119100000D01*
X145980000Y-110440000D02*
X145980000Y-113100000D01*
X146870000Y-110110000D02*
X146870000Y-110440000D01*
X147630000Y-110110000D02*
X147630000Y-110440000D01*
X146970000Y-113100000D02*
X146970000Y-119100000D01*
X147090000Y-113100000D02*
X147090000Y-119100000D01*
X147210000Y-113100000D02*
X147210000Y-119100000D01*
X147330000Y-113100000D02*
X147330000Y-119100000D01*
X147450000Y-113100000D02*
X147450000Y-119100000D01*
X147570000Y-113100000D02*
X147570000Y-119100000D01*
X146870000Y-119100000D02*
X146870000Y-113100000D01*
X147630000Y-119100000D02*
X146870000Y-119100000D01*
X147630000Y-113100000D02*
X147630000Y-119100000D01*
X148580000Y-113100000D02*
X148580000Y-110440000D01*
X140840000Y-113100000D02*
X148580000Y-113100000D01*
X140840000Y-110440000D02*
X140840000Y-113100000D01*
X148580000Y-110440000D02*
X140840000Y-110440000D01*
X143616022Y-83844978D02*
G75*
G03X148054500Y-82006500I1838478J1838478D01*
G01*
X143616022Y-80168022D02*
G75*
G02X148054500Y-82006500I1838478J-1838478D01*
G01*
X143604500Y-80206500D02*
X143604500Y-83806500D01*
X138491000Y-73802000D02*
X138491000Y-76622000D01*
X145381000Y-75212000D02*
X142971000Y-75212000D01*
X135241000Y-75212000D02*
X137651000Y-75212000D01*
X142971000Y-73802000D02*
X137651000Y-73802000D01*
X142971000Y-76622000D02*
X142971000Y-73802000D01*
X137651000Y-76622000D02*
X142971000Y-76622000D01*
X137651000Y-73802000D02*
X137651000Y-76622000D01*
X129862000Y-82940000D02*
X129862000Y-83270000D01*
X136282000Y-82940000D02*
X129862000Y-82940000D01*
X136282000Y-83270000D02*
X136282000Y-82940000D01*
X129862000Y-85560000D02*
X129862000Y-85230000D01*
X136282000Y-85560000D02*
X129862000Y-85560000D01*
X136282000Y-85230000D02*
X136282000Y-85560000D01*
X129894000Y-87094000D02*
X129894000Y-87424000D01*
X136314000Y-87094000D02*
X129894000Y-87094000D01*
X136314000Y-87424000D02*
X136314000Y-87094000D01*
X129894000Y-89714000D02*
X129894000Y-89384000D01*
X136314000Y-89714000D02*
X129894000Y-89714000D01*
X136314000Y-89384000D02*
X136314000Y-89714000D01*
X149531200Y-73911520D02*
X150801200Y-73911520D01*
X149531200Y-75181520D02*
X149531200Y-73911520D01*
X151844129Y-78101520D02*
X152241200Y-78101520D01*
X151844129Y-77341520D02*
X152241200Y-77341520D01*
X160901200Y-78101520D02*
X154901200Y-78101520D01*
X160901200Y-77341520D02*
X160901200Y-78101520D01*
X154901200Y-77341520D02*
X160901200Y-77341520D01*
X152241200Y-76451520D02*
X154901200Y-76451520D01*
X151911200Y-75561520D02*
X152241200Y-75561520D01*
X151911200Y-74801520D02*
X152241200Y-74801520D01*
X154901200Y-75461520D02*
X160901200Y-75461520D01*
X154901200Y-75341520D02*
X160901200Y-75341520D01*
X154901200Y-75221520D02*
X160901200Y-75221520D01*
X154901200Y-75101520D02*
X160901200Y-75101520D01*
X154901200Y-74981520D02*
X160901200Y-74981520D01*
X154901200Y-74861520D02*
X160901200Y-74861520D01*
X160901200Y-75561520D02*
X154901200Y-75561520D01*
X160901200Y-74801520D02*
X160901200Y-75561520D01*
X154901200Y-74801520D02*
X160901200Y-74801520D01*
X154901200Y-73851520D02*
X152241200Y-73851520D01*
X154901200Y-79051520D02*
X154901200Y-73851520D01*
X152241200Y-79051520D02*
X154901200Y-79051520D01*
X152241200Y-73851520D02*
X152241200Y-79051520D01*
X152312320Y-80618080D02*
X152312320Y-85818080D01*
X152312320Y-85818080D02*
X154972320Y-85818080D01*
X154972320Y-85818080D02*
X154972320Y-80618080D01*
X154972320Y-80618080D02*
X152312320Y-80618080D01*
X154972320Y-81568080D02*
X160972320Y-81568080D01*
X160972320Y-81568080D02*
X160972320Y-82328080D01*
X160972320Y-82328080D02*
X154972320Y-82328080D01*
X154972320Y-81628080D02*
X160972320Y-81628080D01*
X154972320Y-81748080D02*
X160972320Y-81748080D01*
X154972320Y-81868080D02*
X160972320Y-81868080D01*
X154972320Y-81988080D02*
X160972320Y-81988080D01*
X154972320Y-82108080D02*
X160972320Y-82108080D01*
X154972320Y-82228080D02*
X160972320Y-82228080D01*
X151982320Y-81568080D02*
X152312320Y-81568080D01*
X151982320Y-82328080D02*
X152312320Y-82328080D01*
X152312320Y-83218080D02*
X154972320Y-83218080D01*
X154972320Y-84108080D02*
X160972320Y-84108080D01*
X160972320Y-84108080D02*
X160972320Y-84868080D01*
X160972320Y-84868080D02*
X154972320Y-84868080D01*
X151915249Y-84108080D02*
X152312320Y-84108080D01*
X151915249Y-84868080D02*
X152312320Y-84868080D01*
X149602320Y-81948080D02*
X149602320Y-80678080D01*
X149602320Y-80678080D02*
X150872320Y-80678080D01*
X152570000Y-88360000D02*
X153900000Y-88360000D01*
X152570000Y-89690000D02*
X152570000Y-88360000D01*
X152570000Y-90960000D02*
X155230000Y-90960000D01*
X155230000Y-90960000D02*
X155230000Y-101180000D01*
X152570000Y-90960000D02*
X152570000Y-101180000D01*
X152570000Y-101180000D02*
X155230000Y-101180000D01*
X160120000Y-100810000D02*
X160120000Y-101140000D01*
X166540000Y-100810000D02*
X160120000Y-100810000D01*
X166540000Y-101140000D02*
X166540000Y-100810000D01*
X160120000Y-103430000D02*
X160120000Y-103100000D01*
X166540000Y-103430000D02*
X160120000Y-103430000D01*
X166540000Y-103100000D02*
X166540000Y-103430000D01*
X154770000Y-107730000D02*
X154770000Y-109000000D01*
X153500000Y-107730000D02*
X154770000Y-107730000D01*
X150580000Y-110042929D02*
X150580000Y-110440000D01*
X151340000Y-110042929D02*
X151340000Y-110440000D01*
X150580000Y-119100000D02*
X150580000Y-113100000D01*
X151340000Y-119100000D02*
X150580000Y-119100000D01*
X151340000Y-113100000D02*
X151340000Y-119100000D01*
X152230000Y-110440000D02*
X152230000Y-113100000D01*
X153120000Y-110110000D02*
X153120000Y-110440000D01*
X153880000Y-110110000D02*
X153880000Y-110440000D01*
X153220000Y-113100000D02*
X153220000Y-119100000D01*
X153340000Y-113100000D02*
X153340000Y-119100000D01*
X153460000Y-113100000D02*
X153460000Y-119100000D01*
X153580000Y-113100000D02*
X153580000Y-119100000D01*
X153700000Y-113100000D02*
X153700000Y-119100000D01*
X153820000Y-113100000D02*
X153820000Y-119100000D01*
X153120000Y-119100000D02*
X153120000Y-113100000D01*
X153880000Y-119100000D02*
X153120000Y-119100000D01*
X153880000Y-113100000D02*
X153880000Y-119100000D01*
X154830000Y-113100000D02*
X154830000Y-110440000D01*
X149630000Y-113100000D02*
X154830000Y-113100000D01*
X149630000Y-110440000D02*
X149630000Y-113100000D01*
X154830000Y-110440000D02*
X149630000Y-110440000D01*
X142994000Y-90824000D02*
G75*
G02X140994000Y-90824000I-1000000J0D01*
G01*
X144764000Y-90824000D02*
X142994000Y-90824000D01*
X144764000Y-101224000D02*
X144764000Y-90824000D01*
X139224000Y-101224000D02*
X144764000Y-101224000D01*
X139224000Y-90824000D02*
X139224000Y-101224000D01*
X140994000Y-90824000D02*
X139224000Y-90824000D01*
X160120000Y-96492000D02*
X160120000Y-96822000D01*
X166540000Y-96492000D02*
X160120000Y-96492000D01*
X166540000Y-96822000D02*
X166540000Y-96492000D01*
X160120000Y-99112000D02*
X160120000Y-98782000D01*
X166540000Y-99112000D02*
X160120000Y-99112000D01*
X166540000Y-98782000D02*
X166540000Y-99112000D01*
X160120000Y-92428000D02*
X160120000Y-92758000D01*
X166540000Y-92428000D02*
X160120000Y-92428000D01*
X166540000Y-92758000D02*
X166540000Y-92428000D01*
X160120000Y-95048000D02*
X160120000Y-94718000D01*
X166540000Y-95048000D02*
X160120000Y-95048000D01*
X166540000Y-94718000D02*
X166540000Y-95048000D01*
X160120000Y-88618000D02*
X160120000Y-88948000D01*
X166540000Y-88618000D02*
X160120000Y-88618000D01*
X166540000Y-88948000D02*
X166540000Y-88618000D01*
X160120000Y-91238000D02*
X160120000Y-90908000D01*
X166540000Y-91238000D02*
X160120000Y-91238000D01*
X166540000Y-90908000D02*
X166540000Y-91238000D01*
X129894000Y-103604000D02*
X129894000Y-103934000D01*
X136314000Y-103604000D02*
X129894000Y-103604000D01*
X136314000Y-103934000D02*
X136314000Y-103604000D01*
X129894000Y-106224000D02*
X129894000Y-105894000D01*
X136314000Y-106224000D02*
X129894000Y-106224000D01*
X136314000Y-105894000D02*
X136314000Y-106224000D01*
X136974000Y-107394000D02*
X136974000Y-108724000D01*
X135644000Y-107394000D02*
X136974000Y-107394000D01*
X134374000Y-107394000D02*
X134374000Y-110054000D01*
X134374000Y-110054000D02*
X129234000Y-110054000D01*
X134374000Y-107394000D02*
X129234000Y-107394000D01*
X129234000Y-107394000D02*
X129234000Y-110054000D01*
X161080000Y-110440000D02*
X155880000Y-110440000D01*
X155880000Y-110440000D02*
X155880000Y-113100000D01*
X155880000Y-113100000D02*
X161080000Y-113100000D01*
X161080000Y-113100000D02*
X161080000Y-110440000D01*
X160130000Y-113100000D02*
X160130000Y-119100000D01*
X160130000Y-119100000D02*
X159370000Y-119100000D01*
X159370000Y-119100000D02*
X159370000Y-113100000D01*
X160070000Y-113100000D02*
X160070000Y-119100000D01*
X159950000Y-113100000D02*
X159950000Y-119100000D01*
X159830000Y-113100000D02*
X159830000Y-119100000D01*
X159710000Y-113100000D02*
X159710000Y-119100000D01*
X159590000Y-113100000D02*
X159590000Y-119100000D01*
X159470000Y-113100000D02*
X159470000Y-119100000D01*
X160130000Y-110110000D02*
X160130000Y-110440000D01*
X159370000Y-110110000D02*
X159370000Y-110440000D01*
X158480000Y-110440000D02*
X158480000Y-113100000D01*
X157590000Y-113100000D02*
X157590000Y-119100000D01*
X157590000Y-119100000D02*
X156830000Y-119100000D01*
X156830000Y-119100000D02*
X156830000Y-113100000D01*
X157590000Y-110042929D02*
X157590000Y-110440000D01*
X156830000Y-110042929D02*
X156830000Y-110440000D01*
X159750000Y-107730000D02*
X161020000Y-107730000D01*
X161020000Y-107730000D02*
X161020000Y-109000000D01*
X167270000Y-107730000D02*
X167270000Y-109000000D01*
X166000000Y-107730000D02*
X167270000Y-107730000D01*
X163080000Y-110042929D02*
X163080000Y-110440000D01*
X163840000Y-110042929D02*
X163840000Y-110440000D01*
X163080000Y-119100000D02*
X163080000Y-113100000D01*
X163840000Y-119100000D02*
X163080000Y-119100000D01*
X163840000Y-113100000D02*
X163840000Y-119100000D01*
X164730000Y-110440000D02*
X164730000Y-113100000D01*
X165620000Y-110110000D02*
X165620000Y-110440000D01*
X166380000Y-110110000D02*
X166380000Y-110440000D01*
X165720000Y-113100000D02*
X165720000Y-119100000D01*
X165840000Y-113100000D02*
X165840000Y-119100000D01*
X165960000Y-113100000D02*
X165960000Y-119100000D01*
X166080000Y-113100000D02*
X166080000Y-119100000D01*
X166200000Y-113100000D02*
X166200000Y-119100000D01*
X166320000Y-113100000D02*
X166320000Y-119100000D01*
X165620000Y-119100000D02*
X165620000Y-113100000D01*
X166380000Y-119100000D02*
X165620000Y-119100000D01*
X166380000Y-113100000D02*
X166380000Y-119100000D01*
X167330000Y-113100000D02*
X167330000Y-110440000D01*
X162130000Y-113100000D02*
X167330000Y-113100000D01*
X162130000Y-110440000D02*
X162130000Y-113100000D01*
X167330000Y-110440000D02*
X162130000Y-110440000D01*
D11*
X142630952Y-120702380D02*
X142630952Y-119702380D01*
X142869047Y-119702380D01*
X143011904Y-119750000D01*
X143107142Y-119845238D01*
X143154761Y-119940476D01*
X143202380Y-120130952D01*
X143202380Y-120273809D01*
X143154761Y-120464285D01*
X143107142Y-120559523D01*
X143011904Y-120654761D01*
X142869047Y-120702380D01*
X142630952Y-120702380D01*
X143630952Y-120702380D02*
X143630952Y-119702380D01*
X143630952Y-120178571D02*
X144202380Y-120178571D01*
X144202380Y-120702380D02*
X144202380Y-119702380D01*
X144535714Y-119702380D02*
X145107142Y-119702380D01*
X144821428Y-120702380D02*
X144821428Y-119702380D01*
X145392857Y-119797619D02*
X145440476Y-119750000D01*
X145535714Y-119702380D01*
X145773809Y-119702380D01*
X145869047Y-119750000D01*
X145916666Y-119797619D01*
X145964285Y-119892857D01*
X145964285Y-119988095D01*
X145916666Y-120130952D01*
X145345238Y-120702380D01*
X145964285Y-120702380D01*
X146345238Y-119797619D02*
X146392857Y-119750000D01*
X146488095Y-119702380D01*
X146726190Y-119702380D01*
X146821428Y-119750000D01*
X146869047Y-119797619D01*
X146916666Y-119892857D01*
X146916666Y-119988095D01*
X146869047Y-120130952D01*
X146297619Y-120702380D01*
X146916666Y-120702380D01*
X144692595Y-85268880D02*
X144692595Y-86078404D01*
X144740214Y-86173642D01*
X144787833Y-86221261D01*
X144883071Y-86268880D01*
X145073547Y-86268880D01*
X145168785Y-86221261D01*
X145216404Y-86173642D01*
X145264023Y-86078404D01*
X145264023Y-85268880D01*
X146264023Y-86268880D02*
X145692595Y-86268880D01*
X145978309Y-86268880D02*
X145978309Y-85268880D01*
X145883071Y-85411738D01*
X145787833Y-85506976D01*
X145692595Y-85554595D01*
X139682404Y-75701880D02*
X139682404Y-74701880D01*
X139920500Y-74701880D01*
X140063357Y-74749500D01*
X140158595Y-74844738D01*
X140206214Y-74939976D01*
X140253833Y-75130452D01*
X140253833Y-75273309D01*
X140206214Y-75463785D01*
X140158595Y-75559023D01*
X140063357Y-75654261D01*
X139920500Y-75701880D01*
X139682404Y-75701880D01*
X141206214Y-75701880D02*
X140634785Y-75701880D01*
X140920500Y-75701880D02*
X140920500Y-74701880D01*
X140825261Y-74844738D01*
X140730023Y-74939976D01*
X140634785Y-74987595D01*
X131810095Y-83797619D02*
X131857714Y-83750000D01*
X131952952Y-83702380D01*
X132191047Y-83702380D01*
X132286285Y-83750000D01*
X132333904Y-83797619D01*
X132381523Y-83892857D01*
X132381523Y-83988095D01*
X132333904Y-84130952D01*
X131762476Y-84702380D01*
X132381523Y-84702380D01*
X132762476Y-83797619D02*
X132810095Y-83750000D01*
X132905333Y-83702380D01*
X133143428Y-83702380D01*
X133238666Y-83750000D01*
X133286285Y-83797619D01*
X133333904Y-83892857D01*
X133333904Y-83988095D01*
X133286285Y-84130952D01*
X132714857Y-84702380D01*
X133333904Y-84702380D01*
X133762476Y-84702380D02*
X133762476Y-83702380D01*
X134333904Y-84702380D02*
X133905333Y-84130952D01*
X134333904Y-83702380D02*
X133762476Y-84273809D01*
X132318285Y-88189714D02*
X132318285Y-88856380D01*
X132080190Y-87808761D02*
X131842095Y-88523047D01*
X132461142Y-88523047D01*
X132746857Y-87856380D02*
X133413523Y-87856380D01*
X132984952Y-88856380D01*
X133794476Y-88856380D02*
X133794476Y-87856380D01*
X134365904Y-88856380D02*
X133937333Y-88284952D01*
X134365904Y-87856380D02*
X133794476Y-88427809D01*
X156666666Y-73904761D02*
X156809523Y-73952380D01*
X157047619Y-73952380D01*
X157142857Y-73904761D01*
X157190476Y-73857142D01*
X157238095Y-73761904D01*
X157238095Y-73666666D01*
X157190476Y-73571428D01*
X157142857Y-73523809D01*
X157047619Y-73476190D01*
X156857142Y-73428571D01*
X156761904Y-73380952D01*
X156714285Y-73333333D01*
X156666666Y-73238095D01*
X156666666Y-73142857D01*
X156714285Y-73047619D01*
X156761904Y-73000000D01*
X156857142Y-72952380D01*
X157095238Y-72952380D01*
X157238095Y-73000000D01*
X157666666Y-72952380D02*
X157666666Y-73761904D01*
X157714285Y-73857142D01*
X157761904Y-73904761D01*
X157857142Y-73952380D01*
X158047619Y-73952380D01*
X158142857Y-73904761D01*
X158190476Y-73857142D01*
X158238095Y-73761904D01*
X158238095Y-72952380D01*
X158714285Y-73952380D02*
X158714285Y-72952380D01*
X159285714Y-73952380D01*
X159285714Y-72952380D01*
X157261904Y-80428571D02*
X157404761Y-80476190D01*
X157452380Y-80523809D01*
X157500000Y-80619047D01*
X157500000Y-80761904D01*
X157452380Y-80857142D01*
X157404761Y-80904761D01*
X157309523Y-80952380D01*
X156928571Y-80952380D01*
X156928571Y-79952380D01*
X157261904Y-79952380D01*
X157357142Y-80000000D01*
X157404761Y-80047619D01*
X157452380Y-80142857D01*
X157452380Y-80238095D01*
X157404761Y-80333333D01*
X157357142Y-80380952D01*
X157261904Y-80428571D01*
X156928571Y-80428571D01*
X157880952Y-80666666D02*
X158357142Y-80666666D01*
X157785714Y-80952380D02*
X158119047Y-79952380D01*
X158452380Y-80952380D01*
X158642857Y-79952380D02*
X159214285Y-79952380D01*
X158928571Y-80952380D02*
X158928571Y-79952380D01*
X152423809Y-87812380D02*
X152423809Y-86812380D01*
X153471428Y-87717142D02*
X153423809Y-87764761D01*
X153280952Y-87812380D01*
X153185714Y-87812380D01*
X153042857Y-87764761D01*
X152947619Y-87669523D01*
X152900000Y-87574285D01*
X152852380Y-87383809D01*
X152852380Y-87240952D01*
X152900000Y-87050476D01*
X152947619Y-86955238D01*
X153042857Y-86860000D01*
X153185714Y-86812380D01*
X153280952Y-86812380D01*
X153423809Y-86860000D01*
X153471428Y-86907619D01*
X153852380Y-87764761D02*
X153995238Y-87812380D01*
X154233333Y-87812380D01*
X154328571Y-87764761D01*
X154376190Y-87717142D01*
X154423809Y-87621904D01*
X154423809Y-87526666D01*
X154376190Y-87431428D01*
X154328571Y-87383809D01*
X154233333Y-87336190D01*
X154042857Y-87288571D01*
X153947619Y-87240952D01*
X153900000Y-87193333D01*
X153852380Y-87098095D01*
X153852380Y-87002857D01*
X153900000Y-86907619D01*
X153947619Y-86860000D01*
X154042857Y-86812380D01*
X154280952Y-86812380D01*
X154423809Y-86860000D01*
X154852380Y-87812380D02*
X154852380Y-86812380D01*
X155233333Y-86812380D01*
X155328571Y-86860000D01*
X155376190Y-86907619D01*
X155423809Y-87002857D01*
X155423809Y-87145714D01*
X155376190Y-87240952D01*
X155328571Y-87288571D01*
X155233333Y-87336190D01*
X154852380Y-87336190D01*
X162655333Y-102572380D02*
X162322000Y-102096190D01*
X162083904Y-102572380D02*
X162083904Y-101572380D01*
X162464857Y-101572380D01*
X162560095Y-101620000D01*
X162607714Y-101667619D01*
X162655333Y-101762857D01*
X162655333Y-101905714D01*
X162607714Y-102000952D01*
X162560095Y-102048571D01*
X162464857Y-102096190D01*
X162083904Y-102096190D01*
X163036285Y-101667619D02*
X163083904Y-101620000D01*
X163179142Y-101572380D01*
X163417238Y-101572380D01*
X163512476Y-101620000D01*
X163560095Y-101667619D01*
X163607714Y-101762857D01*
X163607714Y-101858095D01*
X163560095Y-102000952D01*
X162988666Y-102572380D01*
X163607714Y-102572380D01*
X151369047Y-120702380D02*
X151035714Y-120226190D01*
X150797619Y-120702380D02*
X150797619Y-119702380D01*
X151178571Y-119702380D01*
X151273809Y-119750000D01*
X151321428Y-119797619D01*
X151369047Y-119892857D01*
X151369047Y-120035714D01*
X151321428Y-120130952D01*
X151273809Y-120178571D01*
X151178571Y-120226190D01*
X150797619Y-120226190D01*
X151750000Y-120416666D02*
X152226190Y-120416666D01*
X151654761Y-120702380D02*
X151988095Y-119702380D01*
X152321428Y-120702380D01*
X152654761Y-120702380D02*
X152654761Y-119702380D01*
X153130952Y-120702380D02*
X153130952Y-119702380D01*
X153702380Y-120702380D01*
X153702380Y-119702380D01*
X139105142Y-102286666D02*
X139581333Y-102286666D01*
X139009904Y-102572380D02*
X139343238Y-101572380D01*
X139676571Y-102572380D01*
X139867047Y-101572380D02*
X140438476Y-101572380D01*
X140152761Y-102572380D02*
X140152761Y-101572380D01*
X140628952Y-101572380D02*
X141200380Y-101572380D01*
X140914666Y-102572380D02*
X140914666Y-101572380D01*
X141533714Y-102572380D02*
X141533714Y-101572380D01*
X142009904Y-102572380D02*
X142009904Y-101572380D01*
X142581333Y-102572380D01*
X142581333Y-101572380D01*
X143248000Y-102096190D02*
X143248000Y-102572380D01*
X142914666Y-101572380D02*
X143248000Y-102096190D01*
X143581333Y-101572380D01*
X144057523Y-102000952D02*
X143962285Y-101953333D01*
X143914666Y-101905714D01*
X143867047Y-101810476D01*
X143867047Y-101762857D01*
X143914666Y-101667619D01*
X143962285Y-101620000D01*
X144057523Y-101572380D01*
X144248000Y-101572380D01*
X144343238Y-101620000D01*
X144390857Y-101667619D01*
X144438476Y-101762857D01*
X144438476Y-101810476D01*
X144390857Y-101905714D01*
X144343238Y-101953333D01*
X144248000Y-102000952D01*
X144057523Y-102000952D01*
X143962285Y-102048571D01*
X143914666Y-102096190D01*
X143867047Y-102191428D01*
X143867047Y-102381904D01*
X143914666Y-102477142D01*
X143962285Y-102524761D01*
X144057523Y-102572380D01*
X144248000Y-102572380D01*
X144343238Y-102524761D01*
X144390857Y-102477142D01*
X144438476Y-102381904D01*
X144438476Y-102191428D01*
X144390857Y-102096190D01*
X144343238Y-102048571D01*
X144248000Y-102000952D01*
X145343238Y-101572380D02*
X144867047Y-101572380D01*
X144819428Y-102048571D01*
X144867047Y-102000952D01*
X144962285Y-101953333D01*
X145200380Y-101953333D01*
X145295619Y-102000952D01*
X145343238Y-102048571D01*
X145390857Y-102143809D01*
X145390857Y-102381904D01*
X145343238Y-102477142D01*
X145295619Y-102524761D01*
X145200380Y-102572380D01*
X144962285Y-102572380D01*
X144867047Y-102524761D01*
X144819428Y-102477142D01*
X162909333Y-98000380D02*
X162576000Y-97524190D01*
X162337904Y-98000380D02*
X162337904Y-97000380D01*
X162718857Y-97000380D01*
X162814095Y-97048000D01*
X162861714Y-97095619D01*
X162909333Y-97190857D01*
X162909333Y-97333714D01*
X162861714Y-97428952D01*
X162814095Y-97476571D01*
X162718857Y-97524190D01*
X162337904Y-97524190D01*
X163242666Y-97000380D02*
X163909333Y-97000380D01*
X163480761Y-98000380D01*
X163163333Y-94190380D02*
X162830000Y-93714190D01*
X162591904Y-94190380D02*
X162591904Y-93190380D01*
X162972857Y-93190380D01*
X163068095Y-93238000D01*
X163115714Y-93285619D01*
X163163333Y-93380857D01*
X163163333Y-93523714D01*
X163115714Y-93618952D01*
X163068095Y-93666571D01*
X162972857Y-93714190D01*
X162591904Y-93714190D01*
X164068095Y-93190380D02*
X163591904Y-93190380D01*
X163544285Y-93666571D01*
X163591904Y-93618952D01*
X163687142Y-93571333D01*
X163925238Y-93571333D01*
X164020476Y-93618952D01*
X164068095Y-93666571D01*
X164115714Y-93761809D01*
X164115714Y-93999904D01*
X164068095Y-94095142D01*
X164020476Y-94142761D01*
X163925238Y-94190380D01*
X163687142Y-94190380D01*
X163591904Y-94142761D01*
X163544285Y-94095142D01*
X163163333Y-90380380D02*
X162830000Y-89904190D01*
X162591904Y-90380380D02*
X162591904Y-89380380D01*
X162972857Y-89380380D01*
X163068095Y-89428000D01*
X163115714Y-89475619D01*
X163163333Y-89570857D01*
X163163333Y-89713714D01*
X163115714Y-89808952D01*
X163068095Y-89856571D01*
X162972857Y-89904190D01*
X162591904Y-89904190D01*
X164020476Y-89380380D02*
X163830000Y-89380380D01*
X163734761Y-89428000D01*
X163687142Y-89475619D01*
X163591904Y-89618476D01*
X163544285Y-89808952D01*
X163544285Y-90189904D01*
X163591904Y-90285142D01*
X163639523Y-90332761D01*
X163734761Y-90380380D01*
X163925238Y-90380380D01*
X164020476Y-90332761D01*
X164068095Y-90285142D01*
X164115714Y-90189904D01*
X164115714Y-89951809D01*
X164068095Y-89856571D01*
X164020476Y-89808952D01*
X163925238Y-89761333D01*
X163734761Y-89761333D01*
X163639523Y-89808952D01*
X163591904Y-89856571D01*
X163544285Y-89951809D01*
X132937333Y-105366380D02*
X132604000Y-104890190D01*
X132365904Y-105366380D02*
X132365904Y-104366380D01*
X132746857Y-104366380D01*
X132842095Y-104414000D01*
X132889714Y-104461619D01*
X132937333Y-104556857D01*
X132937333Y-104699714D01*
X132889714Y-104794952D01*
X132842095Y-104842571D01*
X132746857Y-104890190D01*
X132365904Y-104890190D01*
X133889714Y-105366380D02*
X133318285Y-105366380D01*
X133604000Y-105366380D02*
X133604000Y-104366380D01*
X133508761Y-104509238D01*
X133413523Y-104604476D01*
X133318285Y-104652095D01*
X130728571Y-123854761D02*
X130871428Y-123902380D01*
X131109523Y-123902380D01*
X131204761Y-123854761D01*
X131252380Y-123807142D01*
X131300000Y-123711904D01*
X131300000Y-123616666D01*
X131252380Y-123521428D01*
X131204761Y-123473809D01*
X131109523Y-123426190D01*
X130919047Y-123378571D01*
X130823809Y-123330952D01*
X130776190Y-123283333D01*
X130728571Y-123188095D01*
X130728571Y-123092857D01*
X130776190Y-122997619D01*
X130823809Y-122950000D01*
X130919047Y-122902380D01*
X131157142Y-122902380D01*
X131300000Y-122950000D01*
X131585714Y-122902380D02*
X132157142Y-122902380D01*
X131871428Y-123902380D02*
X131871428Y-122902380D01*
X132395238Y-122902380D02*
X133061904Y-123902380D01*
X133061904Y-122902380D02*
X132395238Y-123902380D01*
X133585714Y-123330952D02*
X133490476Y-123283333D01*
X133442857Y-123235714D01*
X133395238Y-123140476D01*
X133395238Y-123092857D01*
X133442857Y-122997619D01*
X133490476Y-122950000D01*
X133585714Y-122902380D01*
X133776190Y-122902380D01*
X133871428Y-122950000D01*
X133919047Y-122997619D01*
X133966666Y-123092857D01*
X133966666Y-123140476D01*
X133919047Y-123235714D01*
X133871428Y-123283333D01*
X133776190Y-123330952D01*
X133585714Y-123330952D01*
X133490476Y-123378571D01*
X133442857Y-123426190D01*
X133395238Y-123521428D01*
X133395238Y-123711904D01*
X133442857Y-123807142D01*
X133490476Y-123854761D01*
X133585714Y-123902380D01*
X133776190Y-123902380D01*
X133871428Y-123854761D01*
X133919047Y-123807142D01*
X133966666Y-123711904D01*
X133966666Y-123521428D01*
X133919047Y-123426190D01*
X133871428Y-123378571D01*
X133776190Y-123330952D01*
X134538095Y-123330952D02*
X134442857Y-123283333D01*
X134395238Y-123235714D01*
X134347619Y-123140476D01*
X134347619Y-123092857D01*
X134395238Y-122997619D01*
X134442857Y-122950000D01*
X134538095Y-122902380D01*
X134728571Y-122902380D01*
X134823809Y-122950000D01*
X134871428Y-122997619D01*
X134919047Y-123092857D01*
X134919047Y-123140476D01*
X134871428Y-123235714D01*
X134823809Y-123283333D01*
X134728571Y-123330952D01*
X134538095Y-123330952D01*
X134442857Y-123378571D01*
X134395238Y-123426190D01*
X134347619Y-123521428D01*
X134347619Y-123711904D01*
X134395238Y-123807142D01*
X134442857Y-123854761D01*
X134538095Y-123902380D01*
X134728571Y-123902380D01*
X134823809Y-123854761D01*
X134871428Y-123807142D01*
X134919047Y-123711904D01*
X134919047Y-123521428D01*
X134871428Y-123426190D01*
X134823809Y-123378571D01*
X134728571Y-123330952D01*
X135300000Y-122997619D02*
X135347619Y-122950000D01*
X135442857Y-122902380D01*
X135680952Y-122902380D01*
X135776190Y-122950000D01*
X135823809Y-122997619D01*
X135871428Y-123092857D01*
X135871428Y-123188095D01*
X135823809Y-123330952D01*
X135252380Y-123902380D01*
X135871428Y-123902380D01*
X156464285Y-119702380D02*
X156702380Y-120702380D01*
X156892857Y-119988095D01*
X157083333Y-120702380D01*
X157321428Y-119702380D01*
X157464285Y-120797619D02*
X158226190Y-120797619D01*
X158416666Y-120654761D02*
X158559523Y-120702380D01*
X158797619Y-120702380D01*
X158892857Y-120654761D01*
X158940476Y-120607142D01*
X158988095Y-120511904D01*
X158988095Y-120416666D01*
X158940476Y-120321428D01*
X158892857Y-120273809D01*
X158797619Y-120226190D01*
X158607142Y-120178571D01*
X158511904Y-120130952D01*
X158464285Y-120083333D01*
X158416666Y-119988095D01*
X158416666Y-119892857D01*
X158464285Y-119797619D01*
X158511904Y-119750000D01*
X158607142Y-119702380D01*
X158845238Y-119702380D01*
X158988095Y-119750000D01*
X159416666Y-120702380D02*
X159416666Y-119702380D01*
X159797619Y-119702380D01*
X159892857Y-119750000D01*
X159940476Y-119797619D01*
X159988095Y-119892857D01*
X159988095Y-120035714D01*
X159940476Y-120130952D01*
X159892857Y-120178571D01*
X159797619Y-120226190D01*
X159416666Y-120226190D01*
X160416666Y-120702380D02*
X160416666Y-119702380D01*
X160654761Y-119702380D01*
X160797619Y-119750000D01*
X160892857Y-119845238D01*
X160940476Y-119940476D01*
X160988095Y-120130952D01*
X160988095Y-120273809D01*
X160940476Y-120464285D01*
X160892857Y-120559523D01*
X160797619Y-120654761D01*
X160654761Y-120702380D01*
X160416666Y-120702380D01*
X162702380Y-119702380D02*
X162940476Y-120702380D01*
X163130952Y-119988095D01*
X163321428Y-120702380D01*
X163559523Y-119702380D01*
X163702380Y-120797619D02*
X164464285Y-120797619D01*
X164702380Y-120702380D02*
X164702380Y-119702380D01*
X164940476Y-119702380D01*
X165083333Y-119750000D01*
X165178571Y-119845238D01*
X165226190Y-119940476D01*
X165273809Y-120130952D01*
X165273809Y-120273809D01*
X165226190Y-120464285D01*
X165178571Y-120559523D01*
X165083333Y-120654761D01*
X164940476Y-120702380D01*
X164702380Y-120702380D01*
X165702380Y-120702380D02*
X165702380Y-119702380D01*
X166750000Y-120702380D02*
X166416666Y-120226190D01*
X166178571Y-120702380D02*
X166178571Y-119702380D01*
X166559523Y-119702380D01*
X166654761Y-119750000D01*
X166702380Y-119797619D01*
X166750000Y-119892857D01*
X166750000Y-120035714D01*
X166702380Y-120130952D01*
X166654761Y-120178571D01*
X166559523Y-120226190D01*
X166178571Y-120226190D01*
M02*
