M48
; DRILL file {KiCad 5.1.4} date Thu 24 Oct 2019 11:28:06 AM -03
; FORMAT={-:-/ absolute / inch / decimal}
; #@! TF.CreationDate,2019-10-24T11:28:06-03:00
; #@! TF.GenerationSoftware,Kicad,Pcbnew,5.1.4
; #@! TF.FileFunction,Plated,1,2,PTH
FMAT,2
INCH
T1C0.0236
T2C0.0315
T3C0.0394
T4C0.0433
%
G90
G05
T1
X5.7266Y-3.1786
X5.7266Y-3.2286
X5.7266Y-3.2786
T2
X6.2803Y-3.5405
X6.5803Y-3.5405
X5.0891Y-3.3169
X5.3891Y-3.3169
X5.4403Y-3.6305
X5.4403Y-3.7305
X5.4403Y-3.8305
X5.4403Y-3.9305
X5.7403Y-3.6305
X5.7403Y-3.7305
X5.7403Y-3.8305
X5.7403Y-3.9305
X6.2803Y-4.0205
X6.5803Y-4.0205
X6.2803Y-3.6905
X6.5803Y-3.6905
X6.2803Y-3.8505
X6.5803Y-3.8505
X5.0903Y-4.1305
X5.3903Y-4.1305
X5.0903Y-3.4805
X5.3903Y-3.4805
T3
X5.9433Y-4.2913
X6.0433Y-4.2913
X5.5972Y-4.2913
X5.6972Y-4.2913
X5.7972Y-4.2913
X6.1894Y-4.2913
X6.2894Y-4.2913
X6.0591Y-3.5311
X6.0591Y-3.6311
X6.0591Y-3.7311
X6.0591Y-3.8311
X6.0591Y-3.9311
X5.9371Y-2.9599
X5.9371Y-3.0599
X5.9399Y-3.2263
X5.9399Y-3.3263
X6.4354Y-4.2913
X6.5354Y-4.2913
X5.1403Y-4.2805
X5.2403Y-4.2805
X5.3403Y-4.2805
T4
X5.2741Y-2.9611
X5.7741Y-2.9611
T0
M30
